<?xml version="1.0" encoding="UTF-8" standalone="no"?>
<!-- Created with Inkscape (http://www.inkscape.org/) -->

<svg
   xmlns:dc="http://purl.org/dc/elements/1.1/"
   xmlns:cc="http://creativecommons.org/ns#"
   xmlns:rdf="http://www.w3.org/1999/02/22-rdf-syntax-ns#"
   xmlns:svg="http://www.w3.org/2000/svg"
   xmlns="http://www.w3.org/2000/svg"
   xmlns:sodipodi="http://sodipodi.sourceforge.net/DTD/sodipodi-0.dtd"
   xmlns:inkscape="http://www.inkscape.org/namespaces/inkscape"
   width="744.09448819"
   height="1052.3622047"
   id="svg2"
   version="1.1"
   inkscape:version="0.48.5 r10040"
   sodipodi:docname="logo-square.svg"
   inkscape:export-filename="F:\dev\arealities\logo\logo-square.png"
   inkscape:export-xdpi="90"
   inkscape:export-ydpi="90">
  <defs
     id="defs4" />
  <sodipodi:namedview
     id="base"
     pagecolor="#ffffff"
     bordercolor="#666666"
     borderopacity="1.0"
     inkscape:pageopacity="0.0"
     inkscape:pageshadow="2"
     inkscape:zoom="0.83049734"
     inkscape:cx="-58.138531"
     inkscape:cy="549.85847"
     inkscape:document-units="px"
     inkscape:current-layer="layer1"
     showgrid="false"
     inkscape:window-width="2703"
     inkscape:window-height="1288"
     inkscape:window-x="89"
     inkscape:window-y="26"
     inkscape:window-maximized="0" />
  <metadata
     id="metadata7">
    <rdf:RDF>
      <cc:Work
         rdf:about="">
        <dc:format>image/svg+xml</dc:format>
        <dc:type
           rdf:resource="http://purl.org/dc/dcmitype/StillImage" />
        <dc:title></dc:title>
      </cc:Work>
    </rdf:RDF>
  </metadata>
  <g
     inkscape:label="Layer 1"
     inkscape:groupmode="layer"
     id="layer1">
    <path
       inkscape:connector-curvature="0"
       id="path3846-8"
       d="m 1.0756733,529.39605 c 0,-442.032316 0,-442.032316 371.5925767,-442.032316 371.5926,0 371.5926,0 371.5926,442.032316 0,442.03231 0,442.03231 -371.5926,442.03231 -371.5925767,0 -371.5925767,0 -371.5925767,-442.03231 z"
       style="fill:#ffffff" />
    <path
       inkscape:connector-curvature="0"
       id="path3846"
       d="m 35.196826,462.89903 c 0,-339.684 0,-339.684 339.683994,-339.684 339.68401,0 339.68401,0 339.68401,339.684 0,339.684 0,339.684 -339.68401,339.684 -339.683994,0 -339.683994,0 -339.683994,-339.684 z"
       style="fill:#fbd404" />
    <path
       inkscape:connector-curvature="0"
       id="path3844"
       d="m 35.196826,730.7993 c 0,-71.78374 0,-71.78374 2.23825,-71.07334 1.597045,0.50688 3.955791,-0.47631 8.233649,-3.43201 3.297469,-2.27832 7.189984,-4.94068 8.650035,-5.91635 1.46005,-0.97567 3.519186,-3.19557 4.575859,-4.93314 1.199066,-1.97171 4.098429,-4.09127 7.713457,-5.63888 3.18573,-1.36383 7.170175,-3.45395 8.854324,-4.64473 3.10758,-2.19722 11.555126,-5.44485 31.98468,-12.29638 6.22754,-2.08856 13.02121,-4.69017 15.09705,-5.78137 2.08922,-1.09821 6.94684,-2.1968 10.88034,-2.46064 4.43805,-0.29769 9.70145,-1.58588 14.0187,-3.431 9.45466,-4.04075 10.57083,-4.45572 15.75165,-5.85598 2.48905,-0.67275 7.43738,-2.86902 10.99626,-4.88062 3.55889,-2.01161 7.58817,-4.00033 8.95397,-4.41937 1.3658,-0.41905 3.02384,-1.19242 3.68454,-1.7186 1.22182,-0.97305 11.25389,-4.35983 17.13087,-5.78329 5.58037,-1.35163 15.82564,-2.8231 25.3415,-3.63967 8.73223,-0.74932 19.94744,-3.35864 23.97892,-5.57892 1.02988,-0.56719 3.12957,-1.03125 4.66599,-1.03125 1.68055,0 4.11316,-1.31967 6.10585,-3.31237 3.31238,-3.31236 3.31238,-3.31236 2.55103,-16.44502 -1.29522,-22.34114 -2.22964,-32.48898 -3.11872,-33.86931 -0.4698,-0.72938 -0.0973,-3.55557 0.82785,-6.2804 0.92509,-2.72485 1.37769,-5.44665 1.00578,-6.04844 -0.40279,-0.65172 -5.3143,-1.00775 -12.14588,-0.88045 -6.3083,0.11755 -18.90108,-0.0382 -27.98393,-0.34608 -15.49965,-0.52541 -16.77446,-0.73198 -20.74888,-3.36212 -7.06536,-4.67564 -16.38531,-14.89646 -20.64333,-22.63872 -4.70265,-8.55076 -8.41277,-18.45566 -8.41277,-22.45955 0,-1.76287 -0.74242,-6.0703 -1.64981,-9.57205 -1.19898,-4.62698 -1.34148,-6.94297 -0.52148,-8.47515 1.52176,-2.84344 -1.83102,-39.73178 -4.37098,-48.09089 -0.55345,-1.8214 -1.00627,-6.46464 -1.00627,-10.3183 0,-3.85366 -0.73008,-9.4651 -1.62239,-12.46987 -1.35789,-4.57247 -1.424,-7.19774 -0.40558,-16.10156 0.66926,-5.85109 1.35389,-15.00572 1.52141,-20.34361 0.36999,-11.78908 3.30288,-19.23791 10.4839,-26.62663 7.72298,-7.94636 25.58826,-15.92488 35.72793,-15.95586 15.16908,-0.0464 24.95829,-10.74733 26.48358,-28.95024 0.43065,-5.13942 1.55155,-10.82081 2.49089,-12.62529 0.93935,-1.8045 2.27273,-6.4145 2.96307,-10.24444 1.46825,-8.14568 3.99137,-12.67749 9.49751,-17.05867 2.1897,-1.74232 5.43705,-5.12246 7.21635,-7.51142 1.9464,-2.61332 5.28287,-5.27214 8.37581,-6.67466 2.82739,-1.2821 6.43054,-4.02213 8.00699,-6.08897 1.57855,-2.06957 5.80939,-5.24338 9.41716,-7.06437 3.603,-1.81857 8.00669,-4.41666 9.78598,-5.77351 1.77931,-1.35686 7.19749,-4.13812 12.04043,-6.18061 4.84294,-2.04248 10.18083,-4.67915 11.86198,-5.85927 1.68115,-1.18011 4.75506,-2.46322 6.83091,-2.85136 2.07584,-0.38814 5.71532,-1.88668 8.08771,-3.33009 8.04743,-4.89621 17.92391,-9.13293 26.76954,-11.48333 4.84902,-1.28844 10.02956,-2.94433 11.51231,-3.67975 3.33866,-1.65592 23.14371,-1.22508 28.75086,0.62546 2.53363,0.83616 6.92584,1.03687 12.63807,0.57751 4.81519,-0.38722 9.48279,-0.75427 10.37244,-0.81567 4.26116,-0.29405 22.70175,2.86991 27.42127,4.70482 2.92317,1.13651 8.40458,2.78293 12.18089,3.65872 9.17449,2.1277 26.47275,12.55064 39.21513,23.62878 13.11056,11.39822 27.39022,25.79554 31.50996,31.76953 1.82454,2.64577 4.86768,6.52788 6.76254,8.62691 4.22701,4.68245 14.98667,26.69064 16.62672,34.00891 2.0138,8.98589 5.01529,14.35515 11.83974,21.17961 7.98389,7.98388 8.28325,8.52966 10.21443,18.62307 0.85286,4.45749 2.17276,9.2147 2.93315,10.57159 0.84105,1.50089 1.66607,8.8019 2.10662,18.64251 0.39828,8.89649 1.27278,19.56317 1.94328,23.70374 3.75161,23.16674 5.04632,63.57524 2.80102,87.42133 -1.19258,12.66563 -1.95979,16.32685 -4.67719,22.31998 -3.24828,7.16388 -3.25747,7.17242 -12.63579,11.73397 -13.11912,6.38105 -21.49497,14.73829 -26.3871,26.3285 -4.3657,10.34293 -5.05325,17.46399 -3.30151,34.194 2.39565,22.87983 7.59757,28.88222 32.41751,37.40594 12.90913,4.43327 46.90502,13.00758 51.56267,13.00491 3.34281,-0.002 6.33623,1.66617 11.58954,6.45825 2.40982,2.19824 6.77718,5.37852 9.70526,7.06728 2.92806,1.68876 7.50745,4.96712 10.17639,7.28524 6.10728,5.3045 13.48522,9.07268 22.83917,11.66479 4.01607,1.11292 9.95572,3.72106 13.1992,5.79591 3.2435,2.07483 8.59332,4.60262 11.8885,5.61729 5.99124,1.84486 5.99124,1.84486 5.99124,84.6568 0,82.81195 0,82.81195 -339.68401,82.81195 -339.683994,0 -339.683994,0 -339.683994,-71.78373 z M 242.78149,311.97046 c 34.6606,-2.04983 68.04184,-4.32605 72.23187,-4.92538 4.58052,-0.65518 25.14504,-2.04987 55.01483,-3.73111 44.15477,-2.48528 53.80375,-3.24107 54.85981,-4.29713 0.77786,-0.77787 0.59893,-1.64624 -0.58273,-2.82789 -2.12352,-2.12352 -16.82291,-2.48103 -54.74776,-1.33151 -29.68746,0.89984 -46.16195,2.51225 -48.6797,4.76443 -1.94416,1.7391 -4.40285,1.96996 -5.89999,0.55396 -1.26951,-1.20069 -21.16489,0.41801 -24.03821,1.95576 -2.05981,1.10238 -18.42575,2.99673 -33.60024,3.88921 -9.01143,0.53 -31.16028,3.28671 -39.17287,4.87555 -2.86248,0.56761 -6.38064,1.03202 -7.81813,1.03202 -1.43751,0 -2.61365,0.466 -2.61365,1.03556 0,0.6189 3.57945,0.83265 8.89649,0.53123 4.89307,-0.27737 16.66069,-0.96349 26.15028,-1.5247 z m 45.83038,-29.05977 c 4.44824,-0.63791 13.47961,-1.63824 20.06969,-2.22295 6.59009,-0.58471 12.76977,-1.36541 13.73262,-1.73489 0.96286,-0.36948 5.269,-0.98667 9.56923,-1.37152 7.81858,-0.69972 7.81858,-0.69972 8.45858,-4.65103 0.35201,-2.17322 0.35923,-6.05532 0.0161,-8.6269 -0.51181,-3.83516 -1.07076,-4.73892 -3.10964,-5.02795 -1.36712,-0.1938 -3.27771,0.29146 -4.24576,1.07836 -1.54696,1.25748 -1.65043,1.16957 -0.85456,-0.72599 0.49804,-1.1862 1.64428,-5.01938 2.5472,-8.51818 1.62204,-6.28534 1.61172,-6.38572 -0.86319,-8.38979 -1.54481,-1.2509 -4.20034,-2.0269 -6.92835,-2.02462 -2.43289,0.002 -7.91883,-0.26489 -12.19096,-0.59319 -7.7675,-0.59693 -7.7675,-0.59693 -9.38064,3.26384 -1.89413,4.53328 -4.62154,5.0387 -5.62458,1.04229 -0.69355,-2.76333 -0.83639,-2.804 -7.29948,-2.07812 -6.10717,0.68591 -6.92604,1.1114 -11.13176,5.78399 -2.49682,2.77398 -4.83452,5.89282 -5.19489,6.93074 -0.36037,1.03792 -1.2985,1.88713 -2.08472,1.88713 -0.78623,0 -1.73375,0.60658 -2.1056,1.34795 -0.37185,0.74138 -1.86414,3.28901 -3.3162,5.6614 -4.96333,8.10915 -9.39771,17.82381 -8.8214,19.32563 0.67445,1.75758 15.28001,1.57667 28.75838,-0.3562 z"
       style="fill:#516695" />
    <path
       inkscape:connector-curvature="0"
       id="path3842"
       d="m 38.431912,801.53851 c 0,-0.57448 -0.727895,-0.76519 -1.617543,-0.42381 -1.427774,0.5479 -1.617543,-7.7512 -1.617543,-70.73921 0,-71.35993 0,-71.35993 2.23825,-70.64953 1.597045,0.50688 3.955791,-0.47631 8.233649,-3.43201 3.297469,-2.27832 7.189984,-4.94068 8.650035,-5.91635 1.46005,-0.97567 3.519186,-3.19557 4.575859,-4.93314 1.199066,-1.97171 4.098429,-4.09127 7.713457,-5.63888 3.18573,-1.36383 7.170175,-3.45395 8.854324,-4.64473 3.10758,-2.19722 11.555126,-5.44485 31.98468,-12.29638 6.22754,-2.08856 13.02121,-4.69017 15.09705,-5.78137 2.08922,-1.09821 6.94684,-2.1968 10.88034,-2.46064 4.43805,-0.29769 9.70145,-1.58588 14.0187,-3.431 9.45466,-4.04075 10.57083,-4.45572 15.75165,-5.85598 2.48905,-0.67275 7.43738,-2.86902 10.99626,-4.88062 3.55889,-2.01161 7.58817,-4.00033 8.95397,-4.41937 1.3658,-0.41905 3.02384,-1.19242 3.68454,-1.7186 1.22182,-0.97305 11.25389,-4.35983 17.13087,-5.78329 5.58037,-1.35163 15.82564,-2.8231 25.3415,-3.63967 8.73223,-0.74932 19.94744,-3.35864 23.97892,-5.57892 1.02988,-0.56719 3.12957,-1.03125 4.66599,-1.03125 1.68055,0 4.11316,-1.31967 6.10585,-3.31237 3.31238,-3.31236 3.31238,-3.31236 2.55103,-16.44502 -1.29522,-22.34114 -2.22964,-32.48898 -3.11872,-33.86931 -0.4698,-0.72938 -0.0973,-3.55557 0.82785,-6.2804 0.92509,-2.72485 1.37769,-5.44665 1.00578,-6.04844 -0.40196,-0.65038 -5.32833,-1.01266 -12.14588,-0.89319 -6.3083,0.11054 -18.90498,-0.0478 -27.99262,-0.35183 -15.50586,-0.51878 -16.78309,-0.72496 -20.74887,-3.34938 -7.22483,-4.78118 -16.79476,-15.35682 -20.48758,-22.64067 -0.92655,-1.82754 -2.21733,-4.29331 -2.86841,-5.47951 -2.60613,-4.74802 -5.69143,-13.94867 -5.69143,-16.97234 0,-1.76287 -0.74242,-6.0703 -1.64981,-9.57205 -1.19898,-4.62698 -1.34148,-6.94297 -0.52148,-8.47515 1.51838,-2.83713 -0.74346,-28.2794 -4.32223,-48.61842 -0.58026,-3.29774 -1.05502,-8.42624 -1.05502,-11.39666 0,-2.97042 -0.73008,-7.85921 -1.62239,-10.86398 -1.35789,-4.57247 -1.424,-7.19774 -0.40558,-16.10156 0.66926,-5.85109 1.35389,-15.00572 1.52141,-20.34361 0.54025,-17.21405 7.53018,-27.63689 24.0943,-35.92749 10.85526,-5.43323 20.32389,-7.66136 25.02186,-5.88808 3.43746,1.29749 10.32828,0.71644 12.58744,-1.0614 0.74138,-0.58342 1.34795,-1.89906 1.34795,-2.92366 0,-1.02458 1.53488,-3.98171 3.41084,-6.57138 3.99167,-5.51036 6.29442,-12.42751 6.29442,-18.90761 0,-2.53968 0.42859,-4.88248 0.9524,-5.20622 0.52381,-0.32374 2.06255,-4.11317 3.41939,-8.42094 4.46201,-14.16624 7.54224,-20.01246 11.54476,-21.91179 1.99376,-0.9461 4.45069,-3.01789 5.45983,-4.60399 5.16473,-8.11747 9.38061,-13.0357 11.66576,-13.60924 1.39909,-0.35115 2.5438,-1.14685 2.5438,-1.76822 0,-2.80821 6.33657,-8.98022 12.32044,-12.00053 3.603,-1.81857 8.00669,-4.41666 9.78598,-5.77351 1.77931,-1.35686 7.19749,-4.13812 12.04043,-6.18061 4.84294,-2.04248 10.18083,-4.67915 11.86198,-5.85927 1.68115,-1.18011 4.75506,-2.46322 6.83091,-2.85136 2.07584,-0.38814 5.71532,-1.88668 8.08771,-3.33009 8.42551,-5.12625 18.00381,-9.13719 28.34245,-11.86847 5.76322,-1.52254 11.20647,-3.16845 12.09612,-3.65758 2.27612,-1.2514 23.17333,-0.51803 25.83541,0.90668 1.21111,0.64816 2.202,1.70174 2.202,2.34129 0,0.73573 1.2872,0.90722 3.50468,0.46691 8.36837,-1.66165 16.56648,-3.03841 18.06256,-3.03336 4.38742,0.0148 15.09707,1.72995 15.09707,2.41774 0,0.43052 1.97872,1.04816 4.39715,1.37254 2.41843,0.32438 5.20868,1.29463 6.20058,2.15611 1.02578,0.89092 5.14512,1.83079 9.55308,2.17963 5.94339,0.47035 8.28771,1.15137 10.05822,2.92188 1.26973,1.26972 2.93791,2.06709 3.70709,1.77193 2.2989,-0.88217 19.15629,10.00503 29.79246,19.24124 13.09229,11.369 27.39195,25.78115 31.5216,31.76953 1.82454,2.64577 4.92755,6.5928 6.8956,8.77118 3.81822,4.22632 11.57555,19.82682 10.62425,21.36606 -0.72302,1.16985 -9.22728,-2.97286 -9.22728,-4.4949 0,-0.62342 -1.33448,-2.82802 -2.9655,-4.89912 -1.63103,-2.0711 -4.66392,-6.08891 -6.73976,-8.92846 -10.35625,-14.16633 -14.25118,-18.19096 -18.2207,-18.82749 -2.13715,-0.3427 -5.27941,-1.38428 -6.98281,-2.31461 -4.54252,-2.48098 -15.77024,-5.70986 -19.88779,-5.71934 -1.9659,-0.004 -5.848,-0.96183 -8.6269,-2.12732 -6.43648,-2.69952 -18.49908,-5.42946 -23.99078,-5.42946 -4.63246,0 -5.68769,-1.49999 -1.82022,-2.58736 2.12492,-0.59746 2.20652,-0.81247 0.65688,-1.73104 -0.97318,-0.57686 -4.927,-1.49602 -8.78624,-2.04255 -3.85924,-0.54654 -8.00505,-1.52258 -9.21289,-2.16901 -1.20783,-0.64641 -3.31981,-1.20606 -4.69328,-1.24365 -2.4972,-0.0684 -2.4972,-0.0684 0.0194,-1.07702 2.8793,-1.15403 2.61725,-3.53014 -0.44927,-4.07371 -1.13705,-0.20156 -2.82809,-1.33417 -3.75788,-2.51692 -1.1894,-1.51299 -2.62787,-2.02543 -4.85263,-1.72871 -3.1621,0.42173 -3.1621,0.42173 -0.1966,1.68144 3.25326,1.38196 3.63431,2.36966 1.67146,4.33252 -1.49431,1.49429 -0.34663,2.97647 2.91158,3.76017 1.18619,0.28532 0.21567,0.58663 -2.15673,0.66958 -10.12342,0.35396 -18.16061,4.39157 -17.06692,8.57384 0.50231,1.92085 -2.02282,4.72022 -5.30909,5.88565 -1.10249,0.391 -1.88713,0.14529 -1.88713,-0.59094 0,-0.93347 -0.31453,-0.94567 -1.21316,-0.047 -1.92394,1.92394 -1.41567,7.01159 0.88672,8.87595 3.22392,2.61058 3.55972,5.97711 1.21238,12.1548 -2.97184,7.82124 -2.63573,17.65977 1.22263,35.78909 0.62051,2.9156 0.90455,5.52476 0.63119,5.79812 -1.41229,1.41229 2.92202,6.58493 6.13798,7.32519 1.93788,0.44606 28.75709,0.65355 59.59824,0.46109 30.84115,-0.19247 60.44218,-0.35294 65.78009,-0.35662 15.26396,-0.0108 27.31046,4.58335 34.3931,13.11564 2.13918,2.57701 3.64226,5.08536 3.3402,5.57412 -0.30208,0.48877 -3.07268,1.42984 -6.15688,2.09129 -3.08422,0.66144 -6.47669,1.98908 -7.53883,2.95031 -2.75931,2.49713 -2.48914,10.48514 0.65651,19.41171 2.54153,7.21222 4.24653,17.18624 5.49509,32.14554 0.34653,4.15169 1.09282,10.46011 1.65847,14.0187 1.38825,8.73383 3.184,35.18654 4.19446,61.78693 0.49792,13.108 1.29849,22.35459 1.99582,23.05192 0.83362,0.83362 2.22296,0.51017 4.89072,-1.1386 3.70062,-2.2871 5.4414,-5.24478 6.73908,-11.45 2.15779,-10.31811 3.4872,-8.58347 4.14594,5.40971 0.52622,11.178 0.33231,12.02387 -5.47579,23.88584 -3.85896,7.88125 -16.9949,18.59894 -26.21448,21.38854 -2.0665,0.62527 -4.26009,2.09396 -4.87467,3.26379 -0.61456,1.16982 -2.46293,4.2129 -4.10747,6.76241 -5.48839,8.50852 -5.55903,8.9776 -7.17803,47.66508 -0.60809,14.53093 -1.63606,31.36886 -2.28438,37.41764 -0.64832,6.04877 -0.88979,11.46535 -0.53659,12.03684 0.3532,0.5715 -0.1628,4.59986 -1.14669,8.95193 -0.98388,4.35207 -1.87669,10.33916 -1.98405,13.30466 -0.10729,2.96549 -0.58078,8.83778 -1.05207,13.04953 -0.68423,6.11462 -0.47682,8.80201 1.02926,13.33636 2.06565,6.21912 1.45506,7.53248 -3.51749,7.566 -3.26015,0.022 -10.98755,7.31137 -13.92546,13.13614 -4.13082,8.18988 -8.96565,19.42692 -8.96565,20.83781 0,0.75043 0.7017,1.94679 1.55934,2.65857 1.2445,1.03284 3.52928,0.51516 11.3156,-2.56387 5.36594,-2.1219 10.86468,-3.858 12.21942,-3.858 2.89279,0 6.25909,2.10095 11.83954,7.38921 3.42209,3.24291 4.04386,4.52813 4.04386,8.35888 0,3.74599 -0.79609,5.48541 -4.61567,10.08494 -2.53861,3.05701 -6.54203,6.70478 -8.89648,8.10618 -2.35446,1.40139 -7.27,4.28554 -10.92341,6.40923 -3.65343,2.1237 -7.97307,5.43907 -9.59923,7.3675 -1.62616,1.92844 -3.65606,3.3533 -4.51091,3.16636 -2.36668,-0.51756 -8.70099,4.27576 -10.09876,7.64198 -1.57424,3.79111 -2.57463,4.38682 -5.09853,3.03606 -1.58982,-0.85084 -2.93003,-0.42815 -6.22287,1.96264 -2.30817,1.67586 -5.95881,3.36574 -8.11254,3.75528 -2.16029,0.39072 -6.99485,3.01761 -10.78362,5.85934 -3.77726,2.83311 -8.40674,6.09745 -10.28773,7.2541 -1.881,1.15664 -7.41348,5.13588 -12.29442,8.84275 -4.88093,3.70687 -9.65035,6.75042 -10.59872,6.76344 -0.94835,0.0131 -3.90797,1.02348 -6.57692,2.24544 -2.66894,1.22197 -6.55105,2.38499 -8.62689,2.5845 -4.88931,0.46991 -10.77672,6.88767 -10.79834,11.77107 -0.0362,8.17317 -0.0433,8.17763 -13.05139,8.17763 -11.44496,0 -11.73681,-0.0602 -11.7599,-2.42631 -0.0317,-3.2435 -3.47744,-10.66376 -5.87259,-12.64623 -2.06213,-1.70682 -2.0614,-1.65301 0.15654,11.56787 0.58795,3.50467 0.58795,3.50467 -7.0806,3.50467 -6.01871,0 -7.66855,-0.34013 -7.66855,-1.58095 0,-0.86953 -0.68667,-3.17452 -1.52594,-5.12222 -4.69656,-10.89938 -6.08498,-15.34228 -6.24044,-19.96909 -0.0993,-2.95542 -1.00994,-6.36103 -2.14295,-8.01415 -2.76713,-4.03741 -3.615,-9.14096 -1.86826,-11.24566 1.20786,-1.45538 1.14466,-1.88496 -0.40495,-2.75217 -2.56624,-1.43614 -5.19347,-6.7209 -7.42673,-14.93911 -1.86736,-6.87174 -1.86293,-7.03839 0.22537,-8.48883 1.28511,-0.89259 2.13011,-2.71063 2.13011,-4.58304 0,-2.60293 0.44093,-3.10356 2.73346,-3.10356 2.03347,0 5.41632,2.72567 13.20993,10.64364 8.60577,8.74308 12.20947,11.54552 20.18173,15.69444 5.33789,2.77793 11.78787,6.28529 14.33329,7.79413 8.94266,5.30089 13.55649,0.27613 6.15559,-6.70382 -2.07585,-1.95778 -3.77427,-4.07744 -3.77427,-4.71037 0,-0.63293 -1.51142,-1.15078 -3.35874,-1.15078 -4.08567,0 -13.6098,-5.00062 -15.20654,-7.98415 -0.92547,-1.72925 -0.77762,-2.39421 0.73188,-3.29199 3.486,-2.07328 7.04978,-5.0479 7.04978,-5.88432 0,-1.2754 -10.21479,-3.12968 -21.56724,-3.9151 -8.69521,-0.60156 -10.65213,-1.09128 -12.94034,-3.2383 -4.18195,-3.92391 -12.67772,-7.28345 -16.74829,-6.62287 -2.01834,0.32753 -4.3589,-0.0192 -5.51149,-0.81635 -1.10185,-0.7621 -3.0952,-1.72632 -4.42968,-2.14273 -1.94448,-0.60675 -2.42631,-0.34027 -2.42631,1.34198 0,2.90429 5.31887,14.26137 6.97703,14.89767 0.74572,0.28617 3.84655,5.46771 6.89076,11.51454 4.43779,8.81501 6.62414,15.26922 11.03014,32.56149 3.02238,11.86198 5.85521,23.30305 6.29519,25.4246 0.43998,2.12156 1.15173,4.42656 1.58167,5.12222 0.59557,0.96366 -20.41334,1.26485 -88.22623,1.26485 -89.00796,0 -89.00796,0 -89.52569,-2.42631 -0.28476,-1.33447 -0.6646,-3.39684 -0.84409,-4.58304 -0.49186,-3.2506 -4.61026,-2.87984 -4.61026,0.41505 0,3.35279 -3.07465,5.40703 -5.65591,3.77882 -1.0349,-0.6528 -1.88411,-1.86347 -1.88713,-2.69038 -0.003,-0.82692 -1.38245,-2.95466 -3.0654,-4.72833 -2.93627,-3.09453 -3.1201,-3.14253 -4.54933,-1.18793 -1.23162,1.68432 -1.77524,1.79969 -3.14067,0.66648 -0.90819,-0.75373 -1.65126,-2.42351 -1.65126,-3.71062 0,-1.84881 -0.98052,-2.60247 -4.6696,-3.58914 -2.56827,-0.6869 -5.70174,-0.97901 -6.96326,-0.64912 -1.64278,0.4296 -3.04797,-0.274 -4.95178,-2.47941 -2.61111,-3.02475 -2.71292,-3.04706 -5.75668,-1.26131 -2.73424,1.60418 -3.21956,1.62729 -4.12773,0.19662 -1.61424,-2.54295 -5.10667,-0.66798 -4.51556,2.42425 0.29515,1.54398 -0.26787,3.19411 -1.45702,4.27028 -1.14315,1.03455 -2.22791,4.07377 -2.64474,7.40996 -0.38866,3.11083 -1.06034,6.2283 -1.4926,6.92771 -0.5644,0.91321 -5.77155,1.18788 -18.47337,0.97445 -17.687435,-0.29721 -17.687435,-0.29721 -18.790621,-3.44187 -0.825672,-2.35361 -0.766266,-3.25712 0.23615,-3.59167 1.009999,-0.33708 1.04805,-0.99127 0.154746,-2.66044 -0.663369,-1.23951 -0.891211,-4.04812 -0.517822,-6.38318 0.538223,-3.36585 0.33759,-4.16974 -1.040691,-4.16974 -1.144677,0 -1.604132,0.79971 -1.393968,2.42631 0.38747,2.99887 -0.846052,5.12222 -2.975661,5.12222 -1.276592,0 -1.572943,-1.3986 -1.428093,-6.73976 0.162467,-5.99074 -0.608493,-11.71391 -1.885467,-13.99662 -0.242045,-0.43268 -1.398984,-0.19005 -2.570975,0.53918 -1.639876,1.02035 -1.974874,2.03864 -1.453804,4.41914 0.510412,2.33181 0.317264,2.96689 -0.784607,2.57984 -0.803935,-0.28238 -1.394302,-1.3104 -1.311927,-2.2845 0.08238,-0.97408 -0.402888,-1.76926 -1.078362,-1.76704 -1.836058,0.006 -8.237486,4.12414 -8.237486,5.29926 0,0.56185 -0.862506,1.29529 -1.916678,1.62988 -2.251673,0.71465 -5.398012,10.44993 -5.86197,18.13788 -0.309067,5.12135 -0.309067,5.12135 -7.58801,5.12222 -4.003418,4.8e-4 -7.278942,-0.46917 -7.278942,-1.04366 z M 368.1769,555.23184 c 2.79751,-1.40966 6.7848,-2.90164 8.86064,-3.3155 5.20123,-1.03695 10.53382,-3.57183 11.62832,-5.52759 0.72759,-1.30014 1.517,-1.4029 3.87888,-0.50491 4.23088,1.60857 4.42425,1.53188 6.67464,-2.64684 1.11792,-2.07585 2.77145,-3.81591 3.67449,-3.86678 21.31235,-1.20088 35.61031,1.28618 35.61031,6.19424 0,2.78184 1.04086,3.20969 3.01231,1.23824 0.99699,-0.99699 1.96992,-0.63257 4.31854,1.61754 2.35075,2.25217 4.10818,2.90952 7.82523,2.92694 2.63648,0.0124 7.94783,0.68722 11.80297,1.49969 7.81721,1.64747 10.78362,0.86663 10.78362,-2.83855 0,-1.27538 1.05033,-3.43691 2.33408,-4.80339 2.26348,-2.40936 2.27473,-2.5501 0.37205,-4.65254 -1.07913,-1.19241 -2.54686,-2.16802 -3.26162,-2.16802 -0.71476,0 -3.00198,-1.6056 -5.08274,-3.56799 -4.64685,-4.38255 -13.48518,-6.84898 -19.16411,-5.34795 -2.69551,0.71247 -5.31533,0.54854 -9.16607,-0.57357 -2.9655,-0.86414 -11.70023,-1.94952 -19.41052,-2.41194 -12.39166,-0.74319 -14.70273,-0.60194 -19.91232,1.2169 -3.24149,1.13171 -6.52486,2.05765 -7.29639,2.05765 -0.77152,0 -7.19766,2.48033 -14.2803,5.51186 -8.38354,3.58833 -13.46653,6.41077 -14.56529,8.08771 -1.04686,1.59769 -2.72902,2.57586 -4.42971,2.57586 -1.50807,0 -3.67864,0.50131 -4.82349,1.11401 -1.14486,0.61271 -4.52651,1.26027 -7.51479,1.43902 -9.41908,0.56344 -10.19447,4.85553 -1.36729,7.56844 7.71536,2.37121 13.65807,2.12052 19.49857,-0.82253 z m 181.39856,-87.34465 c 0,-1.28558 -7.80108,-19.24179 -10.13153,-23.32031 -1.525,-2.66894 -3.29587,-6.05429 -3.93524,-7.52298 -2.50445,-5.75297 -21.72522,-36.85276 -25.73601,-41.64169 -1.53589,-1.83388 -4.73357,-6.10272 -7.10598,-9.48634 -16.7782,-23.92983 -34.53217,-45.77985 -37.88077,-46.62029 -1.42734,-0.35825 -3.30421,-0.0527 -4.18935,0.68182 -3.14958,2.61392 -1.8096,6.85046 4.96116,15.68543 3.61058,4.71136 9.31242,12.13931 12.67075,16.50658 10.39079,13.51245 11.95432,15.70026 13.12465,18.36501 0.62358,1.41984 2.57134,4.39661 4.32836,6.61502 1.75701,2.21841 4.34398,6.51437 5.74882,9.54656 1.40484,3.03219 3.73516,6.44199 5.17851,7.57732 1.44334,1.13534 3.57314,3.92029 4.73289,6.18879 1.85795,3.63423 7.65623,11.26113 19.55511,25.72232 1.95204,2.37239 6.50422,8.31686 10.11594,13.20993 5.49926,7.45026 8.56269,10.4887 8.56269,8.49283 z M 237.38968,314.05569 c 33.11636,-2.01393 52.93685,-3.34473 66.31925,-4.45282 7.41374,-0.61388 18.33216,-1.30542 24.26315,-1.53675 10.91812,-0.42587 45.90279,-2.68293 75.48533,-4.87001 8.89649,-0.65773 21.27069,-1.37542 27.49823,-1.59487 6.22754,-0.21943 17.87385,-0.90217 25.88068,-1.51717 8.00684,-0.61499 21.42086,-1.59485 29.80896,-2.17746 8.38808,-0.5826 16.39491,-1.51739 17.79297,-2.0773 1.71987,-0.6888 1.96052,-1.04013 0.74418,-1.08637 -0.98877,-0.0376 -4.14297,-1.0772 -7.00936,-2.31021 -2.9528,-1.27019 -8.24963,-2.39366 -12.22098,-2.59209 -3.85514,-0.19262 -8.77177,-0.68598 -10.92584,-1.09634 -2.45538,-0.46776 -4.1889,-0.30535 -4.64668,0.43536 -0.94481,1.52874 -10.06158,1.50332 -24.57205,-0.0685 -9.7564,-1.05684 -12.2051,-1.00489 -15.63625,0.33169 -3.28295,1.27887 -6.3533,1.4026 -15.90575,0.64097 -12.82111,-1.02223 -15.06813,-1.95396 -14.09197,-5.84325 0.49364,-1.96685 0.18622,-2.50633 -1.42822,-2.50633 -1.4934,0 -2.24937,-1.02408 -2.75821,-3.73644 -1.43704,-7.6601 -5.45013,-5.31021 -6.67287,3.90736 -0.37817,2.8508 -1.33452,5.72017 -2.12521,6.37638 -0.87856,0.72914 -7.4196,1.26065 -16.82005,1.36677 -15.38244,0.17362 -15.38244,0.17362 -16.2474,-5.74734 -0.8946,-6.12377 -3.24725,-9.91333 -4.9986,-8.05153 -0.534,0.56769 -1.52464,3.68127 -2.20142,6.9191 -1.59773,7.64388 -3.55469,9.7391 -9.14178,9.78771 -6.67357,0.058 -17.148,2.87585 -18.75783,5.04617 -1.36574,1.84127 -1.49277,1.83695 -2.92836,-0.0999 -2.2032,-2.97239 -17.04075,-2.60954 -25.59557,0.62596 -2.19173,0.82893 -3.39136,0.7693 -4.59336,-0.22826 -1.62685,-1.35016 -4.12057,-1.18665 -14.54659,0.95384 -2.66895,0.54793 -7.76421,1.31891 -11.3228,1.71327 -3.5586,0.39436 -8.41123,1.18589 -10.78362,1.75895 -2.3724,0.57308 -7.95292,1.31855 -12.40116,1.6566 -4.44825,0.33807 -8.90177,1.0492 -9.89674,1.58027 -1.97025,1.05168 -5.20033,0.24498 -5.20033,-1.29875 0,-0.52964 -0.97053,-0.96299 -2.15672,-0.96299 -1.19818,0 -2.15673,0.71892 -2.15673,1.61755 0,0.88965 0.54469,1.61754 1.21041,1.61754 0.88539,0 0.88008,0.39801 -0.0197,1.48224 -0.67659,0.81523 -3.67615,1.71727 -6.66568,2.00452 -6.00543,0.57706 -8.09816,1.93557 -7.07778,4.5946 0.5658,1.47448 1.84275,1.65438 7.9613,1.1216 4.00809,-0.34902 15.05161,-1.10674 24.54121,-1.68383 z m 50.68301,-29.31184 c 3.55859,-0.60774 11.3228,-1.4844 17.25379,-1.94815 15.05311,-1.17702 34.22486,-4.12005 35.55253,-5.45763 1.57224,-1.58395 1.25895,-20.15115 -0.36746,-21.77755 -0.71472,-0.71472 -2.13006,-1.30511 -3.14521,-1.31199 -1.10997,-0.008 -1.6741,-0.65732 -1.41517,-1.63007 1.57168,-5.9046 1.33285,-7.27734 -1.67909,-9.65145 -2.34206,-1.8461 -4.0087,-2.29003 -7.06659,-1.88229 -2.78043,0.37074 -4.41648,0.0337 -5.36089,-1.10417 -1.04421,-1.25819 -2.89123,-1.51478 -7.96965,-1.10713 -3.63573,0.29184 -7.36872,0.10621 -8.29554,-0.41242 -2.76146,-1.54539 -5.26997,-0.0266 -3.96951,2.40328 0.86042,1.6077 0.73277,2.04893 -0.59277,2.04893 -0.92913,0 -1.96865,-0.7279 -2.31004,-1.61755 -0.3414,-0.88964 -1.6849,-1.61754 -2.98557,-1.61754 -1.30067,0 -2.90674,-0.54188 -3.56903,-1.20417 -0.88666,-0.88665 -2.22307,-0.18527 -5.06831,2.65996 -2.12526,2.12527 -3.86412,4.26709 -3.86412,4.75959 0,0.4925 -1.97833,2.81367 -4.3963,5.15816 -2.41797,2.34449 -6.00232,6.44639 -7.96523,9.11534 -4.81056,6.54086 -12.59219,21.60228 -12.20358,23.62016 0.17231,0.89472 1.5239,1.96409 3.00353,2.37636 3.19756,0.89094 17.33295,0.13122 26.41421,-1.41967 z M 513.9895,797.32326 c 0,-3.4419 0.57941,-5.74063 1.67643,-6.65107 2.59972,-2.15758 3.52804,-4.47211 4.69165,-11.69741 0.7632,-4.73899 2.03255,-7.89055 4.36346,-10.83357 1.80794,-2.28271 3.28717,-4.83701 3.28717,-5.67623 0,-0.83922 0.71246,-2.46781 1.58325,-3.61909 1.04297,-1.37894 1.59495,-4.74815 1.61754,-9.87342 0.0298,-6.76354 0.32818,-7.93747 2.28339,-8.98386 1.23699,-0.66202 1.99141,-1.46133 1.67649,-1.77626 -0.31493,-0.31493 0.85667,-3.10511 2.60354,-6.2004 1.74688,-3.0953 3.17614,-6.59793 3.17614,-7.78361 0,-1.18569 2.305,-4.54779 5.12222,-7.47134 13.97221,-14.49955 17.3768,-19.03119 21.26604,-28.30588 2.15427,-5.13729 4.857,-11.03894 6.00609,-13.11479 1.14908,-2.07585 3.11501,-5.95795 4.36872,-8.6269 9.44576,-20.1084 13.86082,-28.44863 18.40118,-34.76066 2.87321,-3.99433 5.22402,-7.55666 5.22402,-7.91628 0,-0.35963 1.65244,-2.58437 3.67208,-4.94387 2.71024,-3.1663 4.03707,-6.12633 5.06557,-11.30065 1.5933,-8.01589 3.32019,-9.56231 9.71965,-8.70397 5.91802,0.79377 11.4558,4.61551 14.04658,9.69385 2.07579,4.06888 2.11774,4.60761 0.56369,7.23842 -1.12274,1.90063 -1.83378,6.57123 -2.14614,14.09701 -0.25692,6.19006 -1.21738,13.68096 -2.13441,16.64646 -0.91701,2.96549 -2.48491,8.78865 -3.48422,12.94034 -0.99932,4.15169 -2.71661,9.48959 -3.81621,11.86198 -1.0996,2.3724 -2.72761,7.71029 -3.61781,11.86198 -2.11809,9.87834 -3.19492,13.39804 -5.40888,17.67937 -1.00531,1.94406 -2.48682,6.52571 -3.29224,10.18144 -2.38364,10.81916 -5.75358,21.37464 -7.41923,23.23883 -0.85512,0.95705 -1.54981,3.50106 -1.54377,5.65335 0.006,2.15229 -0.60732,5.06387 -1.36305,6.47017 -0.75571,1.40631 -1.50109,4.01271 -1.65638,5.79201 -1.13599,13.01634 -1.9138,18.50209 -2.77825,19.59437 -0.91493,1.15606 -2.39156,14.74395 -2.24109,20.6222 0.10809,4.22191 2.53649,8.70372 4.97409,9.18005 1.27646,0.24942 -0.90927,0.51958 -4.85716,0.60035 -6.5798,0.13461 -7.13291,-0.0256 -6.63712,-1.92142 0.40471,-1.54761 -0.0958,-2.1584 -1.98809,-2.42632 -1.85063,-0.262 -2.53523,-1.05912 -2.55234,-2.97188 -0.0301,-3.35682 -1.71212,-3.86917 -5.78614,-1.76242 -2.38569,1.23369 -3.45493,2.72569 -3.98739,5.56398 -0.50066,2.66875 -1.0062,3.42741 -1.62101,2.43265 -0.71153,-1.1513 -1.16602,-1.17302 -2.23237,-0.10665 -0.99435,0.99433 -8.22144,1.33891 -28.08231,1.33891 -26.74338,0 -26.74338,0 -26.74338,-5.25977 z m 92.73914,3.07636 c 0,-1.32222 1.03747,-2.57786 2.63034,-3.18346 3.09978,-1.17855 4.01521,-2.72 7.10496,-11.96374 1.27446,-3.81289 3.94491,-11.05726 5.9343,-16.09861 4.74174,-12.01607 14.52453,-41.05178 14.52453,-43.10939 0,-0.88642 1.16076,-4.04495 2.57946,-7.01896 1.41871,-2.974 3.39881,-8.56149 4.40022,-12.41664 3.68893,-14.20123 8.44387,-28.57951 9.80246,-29.64122 0.76859,-0.60065 1.55309,-2.25927 1.74332,-3.68581 0.24099,-1.80728 1.15631,-2.71581 3.01871,-2.99636 1.47007,-0.22144 3.14423,-0.874 3.72035,-1.45012 2.99792,-2.99793 7.59932,0.52331 11.31356,8.65774 1.21867,2.66895 2.6577,5.58053 3.19786,6.47017 3.50032,5.76502 4.97103,11.7558 4.88911,19.91511 -0.0828,8.24379 -2.4725,22.17222 -5.0014,29.15036 -9.95149,27.45981 -10.73008,30.5804 -10.75512,43.10691 -0.0166,8.27996 0.44096,12.95536 1.43944,14.70965 0.80503,1.41444 1.46371,4.63317 1.46371,7.15273 0,4.58102 0,4.58102 -31.00291,4.58304 -30.41099,0.002 -31.0029,-0.0397 -31.0029,-2.1814 z"
       style="fill:#443639" />
    <g
       id="g3007"
       transform="matrix(1.0783619,0,0,1.0783619,-24.078061,-4.1896524)">
      <text
         sodipodi:linespacing="125%"
         id="text3904"
         y="814.98865"
         x="370.61115"
         style="font-size:56.6833725px;font-style:normal;font-weight:normal;text-align:center;line-height:125%;letter-spacing:0px;word-spacing:0px;text-anchor:middle;fill:#000000;fill-opacity:1;stroke:none;font-family:Sans"
         xml:space="preserve"><tspan
           style="font-size:56.6833725px;font-style:normal;font-variant:normal;font-weight:normal;font-stretch:normal;text-align:center;text-anchor:middle;font-family:Courier New;-inkscape-font-specification:Courier New"
           y="814.98865"
           x="370.61115"
           id="tspan3906"
           sodipodi:role="line">Arealities.com</tspan></text>
      <text
         sodipodi:linespacing="125%"
         id="text3904-1"
         y="852.72742"
         x="371.18835"
         style="font-size:102.32892609px;font-style:normal;font-weight:normal;text-align:center;line-height:125%;letter-spacing:0px;word-spacing:0px;text-anchor:middle;fill:#000000;fill-opacity:1;stroke:none;font-family:Sans"
         xml:space="preserve"><tspan
           id="tspan3939"
           style="font-size:29.60582733px;font-style:normal;font-variant:normal;font-weight:normal;font-stretch:normal;text-align:center;text-anchor:middle;font-family:Courier New;-inkscape-font-specification:Courier New"
           y="852.72742"
           x="371.18835"
           sodipodi:role="line">Virtual reality, real sales</tspan></text>
    </g>
  </g>
</svg>
