<?xml version="1.0" encoding="UTF-8" standalone="no"?>
<!-- Created with Inkscape (http://www.inkscape.org/) -->

<svg
   xmlns:dc="http://purl.org/dc/elements/1.1/"
   xmlns:cc="http://creativecommons.org/ns#"
   xmlns:rdf="http://www.w3.org/1999/02/22-rdf-syntax-ns#"
   xmlns:svg="http://www.w3.org/2000/svg"
   xmlns="http://www.w3.org/2000/svg"
   xmlns:sodipodi="http://sodipodi.sourceforge.net/DTD/sodipodi-0.dtd"
   xmlns:inkscape="http://www.inkscape.org/namespaces/inkscape"
   width="744.09448819"
   height="1052.3622047"
   id="svg2"
   version="1.1"
   inkscape:version="0.48.5 r10040"
   sodipodi:docname="New document 1">
  <defs
     id="defs4" />
  <sodipodi:namedview
     id="base"
     pagecolor="#ffffff"
     bordercolor="#666666"
     borderopacity="1.0"
     inkscape:pageopacity="0.0"
     inkscape:pageshadow="2"
     inkscape:zoom="1.9873015"
     inkscape:cx="370.66649"
     inkscape:cy="685.71427"
     inkscape:document-units="px"
     inkscape:current-layer="layer1"
     showgrid="false"
     inkscape:window-width="3377"
     inkscape:window-height="1417"
     inkscape:window-x="55"
     inkscape:window-y="-8"
     inkscape:window-maximized="1" />
  <metadata
     id="metadata7">
    <rdf:RDF>
      <cc:Work
         rdf:about="">
        <dc:format>image/svg+xml</dc:format>
        <dc:type
           rdf:resource="http://purl.org/dc/dcmitype/StillImage" />
        <dc:title></dc:title>
      </cc:Work>
    </rdf:RDF>
  </metadata>
  <g
     inkscape:label="Layer 1"
     inkscape:groupmode="layer"
     id="layer1">
    <g
       id="g3840"
       transform="translate(4.9522145,-3.141741e-6)">
      <path
         style="fill:#fbd404"
         d="m 50.714275,366.64791 c 0,-315.000003 0,-315.000003 314.999995,-315.000003 315.00001,0 315.00001,0 315.00001,315.000003 0,315 0,315 -315.00001,315 -314.999995,0 -314.999995,0 -314.999995,-315 z"
         id="path3846"
         inkscape:connector-curvature="0" />
      <path
         style="fill:#516695"
         d="m 50.714275,615.08052 c 0,-66.56739 0,-66.56739 2.075602,-65.90861 1.480992,0.47004 3.668333,-0.4417 7.63533,-3.18262 3.05785,-2.11276 6.667506,-4.58165 8.021458,-5.48642 1.353952,-0.90477 3.263456,-2.96336 4.243343,-4.57466 1.111933,-1.82843 3.800606,-3.79397 7.152939,-5.22912 2.954231,-1.26472 6.649136,-3.20296 8.210902,-4.30721 2.88176,-2.03755 10.715444,-5.04918 29.660431,-11.40283 5.775,-1.93679 12.07499,-4.34935 13.99999,-5.36125 1.9374,-1.01841 6.44203,-2.03716 10.08969,-2.28183 4.11555,-0.27606 8.99647,-1.47064 12.99999,-3.18168 8.76762,-3.74712 9.80268,-4.13193 14.60702,-5.43044 2.30818,-0.62386 6.89692,-2.66054 10.19719,-4.52596 3.30027,-1.86543 7.03676,-3.70963 8.30331,-4.09822 1.26655,-0.3886 2.8041,-1.10577 3.41679,-1.59372 1.13303,-0.90234 10.4361,-4.04301 15.88601,-5.36303 5.17486,-1.25341 14.67563,-2.61795 23.5,-3.37518 8.09768,-0.69487 18.49791,-3.11458 22.23643,-5.17352 0.95504,-0.52597 2.90215,-0.95631 4.32692,-0.95631 1.55843,0 3.81427,-1.22377 5.66216,-3.07167 3.07167,-3.07166 3.07167,-3.07166 2.36565,-15.25 -1.2011,-20.71766 -2.06762,-30.12808 -2.89209,-31.40811 -0.43566,-0.67638 -0.0902,-3.29719 0.76769,-5.82402 0.85787,-2.52684 1.27758,-5.05085 0.93269,-5.60891 -0.37352,-0.60436 -4.92812,-0.93452 -11.26327,-0.81647 -5.84989,0.10901 -17.52758,-0.0354 -25.9504,-0.32093 -14.37333,-0.48723 -15.5555,-0.67879 -19.24111,-3.11781 -6.55194,-4.33587 -15.19463,-13.81397 -19.14323,-20.99362 -4.36092,-7.92939 -7.80144,-17.11453 -7.80144,-20.82747 0,-1.63476 -0.68847,-5.62918 -1.52992,-8.87647 -1.11185,-4.29075 -1.244,-6.43844 -0.48359,-7.85928 1.41118,-2.63681 -1.69796,-36.84457 -4.05335,-44.59624 -0.51323,-1.68905 -0.93314,-5.99487 -0.93314,-9.5685 0,-3.57362 -0.67703,-8.77729 -1.5045,-11.56371 -1.25921,-4.2402 -1.32052,-6.6747 -0.37611,-14.9315 0.62063,-5.42591 1.25551,-13.91529 1.41086,-18.86529 0.3431,-10.9324 3.06286,-17.83994 9.72206,-24.69174 7.16177,-7.36892 23.72882,-14.76766 33.13167,-14.79639 14.06678,-0.043 23.14463,-9.96635 24.55908,-26.8465 0.39936,-4.76595 1.4388,-10.03448 2.30988,-11.70784 0.87109,-1.67337 2.10758,-5.94837 2.74775,-9.5 1.36156,-7.55375 3.70133,-11.75625 8.80735,-15.81906 2.03058,-1.61571 5.04196,-4.75022 6.69196,-6.96558 1.80496,-2.42342 4.89898,-4.88903 7.76716,-6.18963 2.62193,-1.18893 5.96325,-3.72985 7.42514,-5.6465 1.46384,-1.91918 5.38724,-4.86236 8.73284,-6.55102 3.34118,-1.68642 7.42486,-4.09571 9.07486,-5.35396 1.65001,-1.25826 6.67446,-3.83742 11.16548,-5.73148 4.49101,-1.89406 9.44101,-4.33913 11,-5.43349 1.55898,-1.09436 4.40952,-2.28423 6.33452,-2.64416 1.925,-0.35994 5.3,-1.74958 7.5,-3.088105 7.46264,-4.540417 16.62142,-8.469258 24.82426,-10.648859 4.49666,-1.19482 9.30074,-2.730381 10.67574,-3.412357 3.09605,-1.535589 21.46191,-1.136052 26.66161,0.580006 2.34951,0.775405 6.42255,0.961529 11.71969,0.535549 4.46528,-0.359086 8.7937,-0.699463 9.6187,-0.756394 3.95151,-0.272683 21.05207,2.661354 25.42863,4.362928 2.71075,1.05392 7.79384,2.580701 11.29574,3.392848 8.5078,1.97309 24.54904,11.638614 36.36546,21.911734 12.15785,10.56994 25.39984,23.92104 29.22021,29.46092 1.69196,2.45351 4.51396,6.05351 6.27112,8.00001 3.91985,4.34219 13.89763,24.7511 15.4185,31.53757 1.86746,8.33291 4.65084,13.312 10.97938,19.64054 7.40372,7.40371 7.68132,7.90983 9.47217,17.26978 0.79088,4.13357 2.01487,8.54509 2.72,9.80338 0.77994,1.39182 1.545,8.16228 1.95354,17.2878 0.36934,8.25 1.18029,18.14156 1.80207,21.98125 3.47899,21.48327 4.67961,58.95538 2.59747,81.06864 -1.10591,11.74525 -1.81737,15.14041 -4.33731,20.69804 -3.01223,6.6433 -3.02075,6.65122 -11.71757,10.88129 -12.16579,5.91735 -19.93299,13.66729 -24.46962,24.41527 -4.04845,9.59134 -4.68604,16.19493 -3.0616,31.70921 2.22157,21.21721 7.04548,26.78342 30.06181,34.68774 11.97106,4.11112 43.49655,12.06235 47.81574,12.05988 3.0999,-0.002 5.87579,1.54509 10.74736,5.98894 2.2347,2.0385 6.2847,4.98768 9,6.55372 2.71529,1.56604 6.9619,4.60617 9.4369,6.75584 5.66348,4.91903 12.50528,8.41339 21.1795,10.81714 3.72423,1.03204 9.23226,3.45066 12.24005,5.37473 3.0078,1.92406 7.96886,4.26816 11.02459,5.2091 5.55587,1.7108 5.55587,1.7108 5.55587,78.505 0,76.79421 0,76.79421 -315.00001,76.79421 -314.999995,0 -314.999995,0 -314.999995,-66.56739 z M 243.21427,226.68694 c 32.1419,-1.90087 63.09741,-4.01168 66.98296,-4.56746 4.24767,-0.60757 23.31781,-1.90091 51.01704,-3.45998 40.94615,-2.30468 49.89396,-3.00555 50.87328,-3.98487 0.72134,-0.72134 0.55541,-1.52661 -0.54038,-2.62239 -1.96921,-1.96921 -15.60043,-2.30074 -50.76938,-1.23476 -27.53014,0.83445 -42.80747,2.32969 -45.14226,4.41821 -1.80289,1.61273 -4.08291,1.82681 -5.47126,0.51371 -1.17725,-1.11344 -19.62689,0.38763 -22.29141,1.81364 -1.91013,1.02227 -17.08679,2.77896 -31.15859,3.60659 -8.35659,0.49149 -28.89594,3.04787 -36.32628,4.52126 -2.65447,0.52636 -5.91697,0.95702 -7.25,0.95702 -1.33305,0 -2.42372,0.43214 -2.42372,0.96031 0,0.57393 3.31934,0.77214 8.25,0.49263 4.5375,-0.25722 15.45,-0.89348 24.25,-1.41391 z m 42.5,-26.94807 c 4.125,-0.59155 12.50008,-1.51919 18.61128,-2.06141 6.1112,-0.54222 11.84182,-1.26619 12.7347,-1.60882 0.89289,-0.34263 4.88612,-0.91497 8.87386,-1.27185 7.25042,-0.64888 7.25042,-0.64888 7.84392,-4.31306 0.32643,-2.01529 0.33312,-5.61529 0.0149,-8 -0.47462,-3.55647 -0.99295,-4.39455 -2.88367,-4.66258 -1.26778,-0.17972 -3.03953,0.27028 -3.93723,1 -1.43455,1.1661 -1.5305,1.08458 -0.79246,-0.67324 0.46184,-1.1 1.52479,-4.65463 2.3621,-7.89918 1.50417,-5.8286 1.4946,-5.92169 -0.80047,-7.78013 -1.43255,-1.16 -3.89511,-1.87961 -6.42488,-1.87749 -2.2561,0.002 -7.34339,-0.24564 -11.30507,-0.55009 -7.20306,-0.55355 -7.20306,-0.55355 -8.69898,3.02667 -1.75648,4.20386 -4.2857,4.67255 -5.21585,0.96655 -0.64315,-2.56253 -0.77561,-2.60024 -6.76905,-1.92711 -5.66337,0.63607 -6.42274,1.03064 -10.32284,5.36368 -2.31538,2.5724 -4.48321,5.4646 -4.81739,6.4271 -0.33418,0.9625 -1.20414,1.75 -1.93323,1.75 -0.72909,0 -1.60776,0.5625 -1.95259,1.25 -0.34483,0.6875 -1.72868,3.05 -3.07522,5.25 -4.60266,7.51987 -8.7148,16.52859 -8.18037,17.92128 0.62544,1.62986 14.16965,1.4621 26.66858,-0.33032 z"
         id="path3844"
         inkscape:connector-curvature="0" />
      <path
         style="fill:#443639"
         d="m 53.714275,680.67929 c 0,-0.53273 -0.675,-0.70959 -1.5,-0.39301 -1.324021,0.50808 -1.5,-7.18794 -1.5,-65.59877 0,-66.17438 0,-66.17438 2.075602,-65.5156 1.480992,0.47004 3.668333,-0.4417 7.63533,-3.18262 3.05785,-2.11276 6.667506,-4.58165 8.021458,-5.48642 1.353952,-0.90477 3.263456,-2.96336 4.243343,-4.57466 1.111933,-1.82843 3.800606,-3.79397 7.152939,-5.22912 2.954231,-1.26472 6.649136,-3.20296 8.210902,-4.30721 2.88176,-2.03755 10.715444,-5.04918 29.660431,-11.40283 5.775,-1.93679 12.07499,-4.34935 13.99999,-5.36125 1.9374,-1.01841 6.44203,-2.03716 10.08969,-2.28183 4.11555,-0.27606 8.99647,-1.47064 12.99999,-3.18168 8.76762,-3.74712 9.80268,-4.13193 14.60702,-5.43044 2.30818,-0.62386 6.89692,-2.66054 10.19719,-4.52596 3.30027,-1.86543 7.03676,-3.70963 8.30331,-4.09822 1.26655,-0.3886 2.8041,-1.10577 3.41679,-1.59372 1.13303,-0.90234 10.4361,-4.04301 15.88601,-5.36303 5.17486,-1.25341 14.67563,-2.61795 23.5,-3.37518 8.09768,-0.69487 18.49791,-3.11458 22.23643,-5.17352 0.95504,-0.52597 2.90215,-0.95631 4.32692,-0.95631 1.55843,0 3.81427,-1.22377 5.66216,-3.07167 3.07167,-3.07166 3.07167,-3.07166 2.36565,-15.25 -1.2011,-20.71766 -2.06762,-30.12808 -2.89209,-31.40811 -0.43566,-0.67638 -0.0902,-3.29719 0.76769,-5.82402 0.85787,-2.52684 1.27758,-5.05085 0.93269,-5.60891 -0.37275,-0.60312 -4.94113,-0.93907 -11.26327,-0.82829 -5.84989,0.10251 -17.5312,-0.0443 -25.95846,-0.32626 -14.37909,-0.48108 -15.56351,-0.67228 -19.2411,-3.10599 -6.69982,-4.43374 -15.57433,-14.24088 -18.9988,-20.99543 -0.85922,-1.69473 -2.0562,-3.98132 -2.65997,-5.08132 -2.41675,-4.403 -5.27785,-12.93506 -5.27785,-15.73901 0,-1.63476 -0.68847,-5.62918 -1.52992,-8.87647 -1.11185,-4.29075 -1.244,-6.43844 -0.48359,-7.85928 1.40805,-2.63096 -0.68943,-26.22441 -4.00814,-45.08544 -0.53809,-3.0581 -0.97835,-7.81393 -0.97835,-10.56849 0,-2.75457 -0.67703,-7.2881 -1.5045,-10.07452 -1.25921,-4.2402 -1.32052,-6.6747 -0.37611,-14.9315 0.62063,-5.42591 1.25551,-13.91529 1.41086,-18.86529 0.50099,-15.96315 6.98298,-25.62859 22.34342,-33.31673 10.06644,-5.03841 18.84701,-7.10463 23.20359,-5.46021 3.18766,1.20321 9.57775,0.66438 11.67274,-0.98427 0.6875,-0.54102 1.25,-1.76106 1.25,-2.7112 0,-0.95013 1.42334,-3.69237 3.16298,-6.09386 3.7016,-5.10993 5.83702,-11.52443 5.83702,-17.53364 0,-2.35513 0.39744,-4.52768 0.88319,-4.8279 0.48575,-0.30021 1.91267,-3.81427 3.17091,-7.80901 4.13777,-13.13681 6.99417,-18.5582 10.70583,-20.31951 1.84888,-0.87735 4.12727,-2.79859 5.06308,-4.26943 4.78942,-7.52759 8.69894,-12.08843 10.81804,-12.62029 1.29742,-0.32563 2.35895,-1.06351 2.35895,-1.63973 0,-2.60414 5.8761,-8.32765 11.42514,-11.12848 3.34118,-1.68642 7.42486,-4.09571 9.07486,-5.35396 1.65001,-1.25826 6.67446,-3.83742 11.16548,-5.73148 4.49101,-1.89406 9.44101,-4.33913 11,-5.43349 1.55898,-1.09436 4.40952,-2.28423 6.33452,-2.64416 1.925,-0.35994 5.3,-1.74958 7.5,-3.088105 7.81325,-4.753733 16.69552,-8.47321 26.28287,-11.006017 5.34442,-1.411904 10.39213,-2.938209 11.21713,-3.39179 2.11072,-1.160465 21.48938,-0.480385 23.95801,0.840789 1.1231,0.601061 2.04199,1.57808 2.04199,2.171153 0,0.68227 1.19366,0.841297 3.25,0.432984 7.76026,-1.540905 15.36264,-2.817619 16.75,-2.812928 4.0686,0.01376 14,1.604234 14,2.242048 0,0.399231 1.83493,0.97199 4.07762,1.272798 2.24269,0.300808 4.83018,1.200552 5.75,1.999431 0.95124,0.826179 4.77124,1.697749 8.85888,2.02124 5.5115,0.436174 7.68547,1.067705 9.32732,2.709556 1.17746,1.177454 2.72442,1.916878 3.4377,1.643164 2.13185,-0.818066 17.76425,9.277997 27.62752,17.843027 12.1409,10.54285 25.40144,23.9077 29.231,29.46092 1.69196,2.45351 4.56948,6.11372 6.39451,8.1338 3.54076,3.9192 10.73439,18.38605 9.85222,19.81344 -0.67048,1.08484 -8.55676,-2.75683 -8.55676,-4.16827 0,-0.57811 -1.23751,-2.62251 -2.75,-4.54311 -1.51251,-1.9206 -4.32501,-5.64644 -6.25,-8.27965 -9.60369,-13.1369 -13.21558,-16.86907 -16.89665,-17.45934 -1.98185,-0.3178 -4.89577,-1.28369 -6.47539,-2.14642 -4.21242,-2.30069 -14.62425,-5.29493 -18.44259,-5.30373 -1.82304,-0.004 -5.42304,-0.89193 -8,-1.97273 -5.96876,-2.50335 -17.1548,-5.03491 -22.24743,-5.03491 -4.29583,0 -5.27438,-1.39099 -1.68795,-2.39935 1.97051,-0.55404 2.04618,-0.75343 0.60914,-1.60525 -0.90246,-0.53494 -4.56896,-1.3873 -8.14776,-1.89412 -3.5788,-0.50682 -7.42334,-1.41194 -8.54341,-2.01139 -1.12006,-0.59944 -3.07857,-1.11842 -4.35223,-1.15328 -2.31574,-0.0634 -2.31574,-0.0634 0.018,-0.99875 2.67007,-1.07017 2.42707,-3.27362 -0.41662,-3.77769 -1.05442,-0.18691 -2.62258,-1.23722 -3.4848,-2.33402 -1.10297,-1.40304 -2.43691,-1.87825 -4.5,-1.60309 -2.93232,0.39109 -2.93232,0.39109 -0.18232,1.55926 3.01686,1.28153 3.37022,2.19746 1.55,4.01768 -1.38572,1.38571 -0.32144,2.76018 2.7,3.48693 1.1,0.26459 0.2,0.544 -2,0.62092 -9.38778,0.32824 -16.84092,4.07245 -15.82671,7.9508 0.46581,1.78127 -1.87583,4.37722 -4.92329,5.45796 -1.02238,0.36258 -1.75,0.13473 -1.75,-0.548 0,-0.86564 -0.29167,-0.87695 -1.125,-0.0436 -1.78413,1.78413 -1.3128,6.50207 0.82228,8.23095 2.98965,2.42088 3.30105,5.54277 1.12428,11.27154 -2.75588,7.25289 -2.4442,16.37648 1.13379,33.18839 0.57542,2.70373 0.83882,5.12329 0.58532,5.37678 -1.30966,1.30967 2.70968,6.10642 5.69195,6.79289 1.79706,0.41365 26.66738,0.60606 55.26738,0.42758 28.6,-0.17848 56.05,-0.32729 61.00001,-0.3307 14.15477,-0.01 25.32588,4.25029 31.89384,12.16256 1.98373,2.38974 3.37759,4.71582 3.09748,5.16906 -0.28013,0.45325 -2.8494,1.32594 -5.70948,1.93932 -2.86009,0.61338 -6.00604,1.84454 -6.991,2.73592 -2.5588,2.31567 -2.30826,9.72321 0.6088,18.00111 2.35685,6.68812 3.93795,15.93736 5.09578,29.8096 0.32135,3.85 1.01341,9.7 1.53795,13 1.28737,8.09916 2.95263,32.62962 3.88966,57.29702 0.46174,12.15548 1.20413,20.73014 1.85079,21.3768 0.77304,0.77304 2.06142,0.47309 4.53532,-1.05586 3.43171,-2.12091 5.04599,-4.86366 6.24937,-10.61796 2.00099,-9.56832 3.2338,-7.95973 3.84467,5.0166 0.48798,10.36572 0.30816,11.15012 -5.07788,22.15011 -3.57854,7.30854 -15.75992,17.2474 -24.30954,19.83429 -1.91633,0.57983 -3.95052,1.9418 -4.52044,3.02662 -0.5699,1.08481 -2.28395,3.90676 -3.80899,6.271 -5.08956,7.89023 -5.15507,8.32522 -6.65642,44.20138 -0.5639,13.475 -1.51717,29.08936 -2.11838,34.69859 -0.60121,5.60922 -0.82513,10.63219 -0.4976,11.16215 0.32754,0.52997 -0.15097,4.2656 -1.06336,8.30142 -0.91238,4.03581 -1.74032,9.58784 -1.83987,12.33784 -0.0995,2.75 -0.53858,8.19556 -0.97562,12.10125 -0.63451,5.67029 -0.44217,8.16239 0.95446,12.36724 1.91555,5.7672 1.34933,6.98512 -3.26188,7.0162 -3.02324,0.0204 -10.18911,6.78007 -12.91353,12.18157 -3.83064,7.59474 -8.31414,18.01521 -8.31414,19.32358 0,0.6959 0.65071,1.80532 1.44603,2.46538 1.15406,0.95778 3.27281,0.47772 10.49332,-2.37756 4.97601,-1.96771 10.07517,-3.57765 11.33147,-3.57765 2.68257,0 5.80425,1.94828 10.97919,6.85225 3.17341,3.00726 3.75,4.19908 3.75,7.75146 0,3.47378 -0.73824,5.0868 -4.28026,9.3521 -2.35414,2.83486 -6.06664,6.21756 -8.25,7.51712 -2.18336,1.29955 -6.7417,3.97412 -10.12963,5.94349 -3.38794,1.96937 -7.39369,5.04382 -8.90168,6.83212 -1.50799,1.7883 -3.39038,3.10962 -4.18311,2.93627 -2.1947,-0.47995 -8.06871,3.96505 -9.36491,7.08665 -1.45984,3.51562 -2.38754,4.06804 -4.72803,2.81544 -1.47429,-0.78901 -2.71711,-0.39704 -5.77067,1.82002 -2.14044,1.55408 -5.5258,3.12116 -7.52302,3.48239 -2.00331,0.36233 -6.48655,2.79833 -10,5.43356 -3.50278,2.62723 -7.79585,5.65436 -9.54015,6.72696 -1.74431,1.07259 -6.87476,4.76267 -11.40101,8.20017 -4.52625,3.4375 -8.94909,6.25988 -9.82854,6.27196 -0.87944,0.0121 -3.62399,0.9491 -6.09899,2.08227 -2.475,1.13317 -6.075,2.21168 -8,2.39669 -4.53401,0.43576 -9.9936,6.38716 -10.01365,10.91569 -0.0336,7.57925 -0.0402,7.58339 -12.10298,7.58339 -10.61328,0 -10.88392,-0.0558 -10.90533,-2.25 -0.0294,-3.0078 -3.22475,-9.88885 -5.44585,-11.72726 -1.91228,-1.58279 -1.9116,-1.53289 0.14517,10.72726 0.54522,3.25 0.54522,3.25 -6.56607,3.25 -5.58135,0 -7.1113,-0.31542 -7.1113,-1.46607 0,-0.80634 -0.63677,-2.94384 -1.41505,-4.75 -4.35527,-10.10735 -5.6428,-14.2274 -5.78696,-18.51799 -0.0921,-2.74065 -0.93655,-5.89879 -1.98723,-7.43178 -2.56605,-3.74402 -3.35231,-8.47671 -1.7325,-10.42846 1.12009,-1.34963 1.06148,-1.74799 -0.37552,-2.55218 -2.37976,-1.33178 -4.81608,-6.23251 -6.88705,-13.85352 -1.73166,-6.37239 -1.72756,-6.52693 0.20899,-7.87197 1.19173,-0.82773 1.97532,-2.51366 1.97532,-4.25 0,-2.41378 0.40889,-2.87803 2.53483,-2.87803 1.8857,0 5.02273,2.5276 12.25,9.87019 7.98041,8.10774 11.32223,10.70653 18.71517,14.55396 4.95,2.57607 10.93127,5.82856 13.29172,7.22775 8.29282,4.91569 12.57138,0.25607 5.70828,-6.21667 -1.925,-1.81551 -3.5,-3.78114 -3.5,-4.36808 0,-0.58693 -1.40159,-1.06715 -3.11467,-1.06715 -3.78877,0 -12.62081,-4.63724 -14.10152,-7.40396 -0.85822,-1.60359 -0.72111,-2.22023 0.6787,-3.05277 3.23268,-1.92262 6.53749,-4.68108 6.53749,-5.45672 0,-1.18272 -9.47251,-2.90226 -20,-3.6306 -8.06335,-0.55785 -9.87807,-1.01198 -12,-3.00298 -3.87806,-3.63877 -11.75646,-6.75418 -15.53123,-6.14161 -1.87168,0.30373 -4.04215,-0.0178 -5.11099,-0.75702 -1.02178,-0.70672 -2.87028,-1.60088 -4.10778,-1.98703 -1.80318,-0.56266 -2.25,-0.31554 -2.25,1.24446 0,2.69325 4.93236,13.22504 6.47003,13.8151 0.69153,0.26537 3.56703,5.07038 6.39002,10.6778 4.11531,8.17445 6.14278,14.15965 10.22861,30.19533 2.80275,11 5.42973,21.60968 5.83773,23.57706 0.40801,1.96739 1.06804,4.10489 1.46674,4.75 0.55229,0.89363 -18.92996,1.17294 -81.81505,1.17294 -82.53997,0 -82.53997,0 -83.02008,-2.25 -0.26407,-1.2375 -0.6163,-3.15 -0.78275,-4.25 -0.45612,-3.01439 -4.27524,-2.67057 -4.27524,0.38489 0,3.10915 -2.85123,5.01411 -5.24491,3.50422 -0.9597,-0.60536 -1.7472,-1.72806 -1.75,-2.49488 -0.003,-0.76683 -1.28199,-2.73995 -2.84265,-4.38473 -2.72289,-2.86966 -2.89337,-2.91417 -4.21874,-1.10161 -1.14212,1.56193 -1.64623,1.66891 -2.91244,0.61805 -0.8422,-0.69896 -1.53127,-2.2474 -1.53127,-3.44098 0,-1.71446 -0.90927,-2.41335 -4.33027,-3.32832 -2.38164,-0.63699 -5.28741,-0.90787 -6.45726,-0.60195 -1.5234,0.39838 -2.82648,-0.25409 -4.59194,-2.29924 -2.42137,-2.80495 -2.51578,-2.82564 -5.33836,-1.16965 -2.53555,1.4876 -2.9856,1.50903 -3.82778,0.18233 -1.49694,-2.35816 -4.73558,-0.61944 -4.18742,2.24808 0.2737,1.43179 -0.24841,2.96201 -1.35115,3.95997 -1.06008,0.95937 -2.06601,3.77774 -2.45255,6.8715 -0.36042,2.88477 -0.98329,5.7757 -1.38414,6.42429 -0.52338,0.84685 -5.35214,1.10156 -17.13095,0.90364 -16.402134,-0.27561 -16.402134,-0.27561 -17.425154,-3.19176 -0.765673,-2.18258 -0.710584,-3.02043 0.218989,-3.33067 0.936605,-0.31259 0.971891,-0.91924 0.143501,-2.46711 -0.615163,-1.14944 -0.826449,-3.75396 -0.480193,-5.91933 0.499112,-3.12127 0.313058,-3.86674 -0.965066,-3.86674 -1.061497,0 -1.487564,0.7416 -1.292672,2.25 0.359313,2.78095 -0.784572,4.75 -2.759427,4.75 -1.183825,0 -1.458641,-1.29697 -1.324317,-6.25 0.150661,-5.55541 -0.564276,-10.86269 -1.748455,-12.97952 -0.224456,-0.40124 -1.297323,-0.17624 -2.384149,0.5 -1.52071,0.9462 -1.831364,1.8905 -1.348159,4.09801 0.473321,2.16236 0.294209,2.75129 -0.727592,2.39237 -0.745515,-0.26186 -1.292981,-1.21518 -1.216592,-2.11849 0.07639,-0.9033 -0.373611,-1.64069 -1,-1.63863 -1.702637,0.006 -7.638889,3.82444 -7.638889,4.91417 0,0.52102 -0.799829,1.20117 -1.777397,1.51144 -2.08805,0.66272 -5.005752,9.69056 -5.435995,16.81985 -0.286608,4.74919 -0.286608,4.74919 -7.036608,4.75 -3.7125,4.4e-4 -6.75,-0.43508 -6.75,-0.96782 z M 359.49751,452.27112 c 2.59422,-1.30723 6.29176,-2.69079 8.21676,-3.07457 4.82327,-0.9616 9.76835,-3.31228 10.78332,-5.12592 0.67471,-1.20566 1.40676,-1.30095 3.59701,-0.46822 3.92343,1.49168 4.10275,1.42057 6.18961,-2.4545 1.03668,-1.925 2.57005,-3.53861 3.40747,-3.58579 19.76364,-1.11361 33.0226,1.19272 33.0226,5.74412 0,2.57969 0.96522,2.97645 2.79341,1.14826 0.92454,-0.92454 1.82677,-0.5866 4.00472,1.5 2.17993,2.08851 3.80965,2.69809 7.25659,2.71425 2.4449,0.0115 7.37028,0.63728 10.94528,1.39071 7.24915,1.52775 10,0.80365 10,-2.63228 0,-1.1827 0.97401,-3.18716 2.16447,-4.45434 2.099,-2.23428 2.10943,-2.36479 0.34501,-4.31445 -1.00071,-1.10576 -2.36178,-2.01048 -3.0246,-2.01048 -0.66282,0 -2.78384,-1.48892 -4.71339,-3.30871 -4.30918,-4.06408 -12.50525,-6.35128 -17.7715,-4.95933 -2.49964,0.6607 -4.92908,0.50868 -8.5,-0.53189 -2.75,-0.80134 -10.85,-1.80785 -18,-2.23667 -11.49119,-0.68918 -13.63432,-0.5582 -18.46534,1.12847 -3.00594,1.04947 -6.05072,1.90813 -6.76618,1.90813 -0.71546,0 -6.67463,2.30009 -13.24259,5.11132 -7.77433,3.32758 -12.48795,5.94492 -13.50687,7.5 -0.97078,1.48159 -2.5307,2.38868 -4.10781,2.38868 -1.39848,0 -3.41132,0.46488 -4.47298,1.03306 -1.06166,0.56818 -4.19758,1.16869 -6.96871,1.33445 -8.73462,0.52249 -9.45366,4.50269 -1.26793,7.01846 7.1547,2.1989 12.66557,1.96642 18.08166,-0.76276 z m 168.21677,-80.99753 c 0,-1.19216 -7.23419,-17.84354 -9.39529,-21.62568 -1.41419,-2.475 -3.05637,-5.61434 -3.64928,-6.97631 -2.32246,-5.33491 -20.1465,-34.17476 -23.86584,-38.61569 -1.42428,-1.70061 -4.38959,-5.65925 -6.5896,-8.79699 -15.55897,-22.19091 -32.02281,-42.45314 -35.12807,-43.23251 -1.32362,-0.33221 -3.0641,-0.0489 -3.88492,0.63228 -2.92071,2.42397 -1.6781,6.35265 4.60064,14.54561 3.34821,4.36899 8.63571,11.25717 11.75,15.30708 9.63572,12.53054 11.08563,14.55936 12.17091,17.03047 0.57827,1.31667 2.38449,4.07712 4.01383,6.13433 1.62934,2.0572 4.02832,6.04098 5.33107,8.85283 1.30275,2.81185 3.46374,5.97387 4.8022,7.0267 1.33846,1.05283 3.31349,3.63541 4.38896,5.73906 1.72294,3.37014 7.09987,10.44281 18.13409,23.85314 1.81019,2.2 6.03158,7.7125 9.38084,12.25 5.09964,6.90887 7.94046,9.72651 7.94046,7.87568 z M 238.21427,228.62064 c 30.70988,-1.86758 49.09006,-3.10167 61.5,-4.12924 6.875,-0.56927 17,-1.21056 22.5,-1.42508 10.12473,-0.39492 42.56715,-2.48797 70,-4.51612 8.25,-0.60993 19.725,-1.27547 25.5,-1.47897 5.775,-0.20349 16.575,-0.83661 24,-1.40692 7.425,-0.5703 19.86426,-1.47896 27.64281,-2.01923 7.77854,-0.54027 15.20354,-1.40713 16.5,-1.92635 1.59489,-0.63875 1.81806,-0.96455 0.6901,-1.00743 -0.91691,-0.0349 -3.84191,-0.99892 -6.5,-2.14233 -2.73823,-1.17789 -7.65015,-2.21972 -11.33291,-2.40373 -3.575,-0.17862 -8.13435,-0.63613 -10.13189,-1.01667 -2.27695,-0.43377 -3.8845,-0.28316 -4.30902,0.40372 -0.87615,1.41765 -9.33043,1.39408 -22.78646,-0.0635 -9.04742,-0.98004 -11.31818,-0.93187 -14.5,0.30759 -3.04439,1.18593 -5.89162,1.30067 -14.74992,0.59439 -11.88943,-0.94795 -13.97316,-1.81197 -13.06794,-5.41864 0.45777,-1.82392 0.17269,-2.3242 -1.32443,-2.3242 -1.38488,0 -2.08592,-0.94966 -2.55778,-3.46492 -1.33262,-7.10346 -5.05408,-4.92433 -6.18797,3.62342 -0.35069,2.64364 -1.23754,5.3045 -1.97078,5.91303 -0.81471,0.67615 -6.88043,1.16904 -15.59778,1.26745 -14.26463,0.161 -14.26463,0.161 -15.06674,-5.3297 -0.82959,-5.67877 -3.01128,-9.19295 -4.63536,-7.46644 -0.4952,0.52643 -1.41385,3.41376 -2.04145,6.4163 -1.48163,7.08842 -3.29638,9.03139 -8.47747,9.07646 -6.18862,0.0538 -15.9019,2.66687 -17.39474,4.67948 -1.2665,1.70747 -1.3843,1.70346 -2.71557,-0.0926 -2.0431,-2.7564 -15.80244,-2.41991 -23.7356,0.58047 -2.03246,0.76869 -3.14492,0.7134 -4.25957,-0.21167 -1.50863,-1.25205 -3.82114,-1.10042 -13.48953,0.88452 -2.475,0.50812 -7.2,1.22307 -10.5,1.58878 -3.3,0.3657 -7.8,1.09971 -10,1.63113 -2.2,0.53143 -7.375,1.22273 -11.5,1.53622 -4.125,0.3135 -8.2549,0.97295 -9.17756,1.46543 -1.82708,0.97526 -4.82244,0.22718 -4.82244,-1.20437 0,-0.49115 -0.9,-0.89301 -2,-0.89301 -1.11111,0 -2,0.66667 -2,1.5 0,0.825 0.50511,1.5 1.12245,1.5 0.82105,0 0.81613,0.36909 -0.0183,1.37453 -0.62743,0.75599 -3.40902,1.59248 -6.18131,1.85886 -5.56903,0.53512 -7.50968,1.79491 -6.56345,4.26072 0.52468,1.36733 1.70884,1.53416 7.38277,1.04009 3.71683,-0.32365 13.95785,-1.02631 22.75786,-1.56147 z m 47,-27.18182 c 3.3,-0.56357 10.5,-1.37653 16,-1.80658 13.95924,-1.09149 31.73783,-3.82066 32.96902,-5.06104 1.45799,-1.46885 1.16746,-18.68681 -0.34076,-20.19503 -0.66278,-0.66278 -1.97527,-1.21027 -2.91665,-1.21665 -1.02932,-0.007 -1.55245,-0.60955 -1.31234,-1.51161 1.45747,-5.47553 1.236,-6.74852 -1.55707,-8.95011 -2.17187,-1.71195 -3.7174,-2.12362 -6.55308,-1.74551 -2.57838,0.3438 -4.09555,0.0313 -4.97133,-1.02393 -0.96833,-1.16676 -2.68113,-1.4047 -7.39051,-1.02668 -3.37153,0.27064 -6.83326,0.0985 -7.69273,-0.38245 -2.56079,-1.43309 -4.88701,-0.0247 -3.68105,2.22864 0.79789,1.49088 0.67952,1.90004 -0.5497,1.90004 -0.86161,0 -1.82559,-0.675 -2.14217,-1.5 -0.31659,-0.825 -1.56246,-1.5 -2.76862,-1.5 -1.20615,0 -2.69551,-0.5025 -3.30968,-1.11667 -0.82222,-0.82222 -2.06152,-0.1718 -4.7,2.46667 -1.97083,1.97083 -3.58333,3.95701 -3.58333,4.41372 0,0.45671 -1.83457,2.60921 -4.07683,4.78333 -2.24226,2.17412 -5.56615,5.97795 -7.38642,8.45295 -4.46098,6.06555 -11.67714,20.0325 -11.31677,21.90374 0.15979,0.82971 1.41316,1.82137 2.78527,2.20368 2.9652,0.8262 16.07341,0.12168 24.49475,-1.31651 z m 209.5,475.33153 c 0,-3.19178 0.5373,-5.32347 1.5546,-6.16775 2.41081,-2.0008 3.27167,-4.14713 4.35072,-10.84739 0.70774,-4.39462 1.88485,-7.31716 4.04638,-10.04632 1.67656,-2.11683 3.0483,-4.48552 3.0483,-5.26375 0,-0.77824 0.66069,-2.28848 1.4682,-3.3561 0.96718,-1.27874 1.47905,-4.40312 1.5,-9.15595 0.0276,-6.27205 0.30433,-7.36067 2.11746,-8.33102 1.1471,-0.61391 1.8467,-1.35514 1.55466,-1.64718 -0.29204,-0.29205 0.79442,-2.87947 2.41435,-5.74984 1.61994,-2.87037 2.94534,-6.11847 2.94534,-7.21799 0,-1.09953 2.1375,-4.21731 4.75,-6.92842 12.95688,-13.4459 16.11407,-17.64824 19.72069,-26.24896 1.99772,-4.76397 4.50405,-10.23677 5.56964,-12.16177 1.06558,-1.925 2.88865,-5.525 4.05126,-8 8.75936,-18.64718 12.85358,-26.38134 17.06401,-32.23469 2.66442,-3.70407 4.8444,-7.00754 4.8444,-7.34103 0,-0.33349 1.53236,-2.39657 3.40524,-4.58461 2.51329,-2.93621 3.74371,-5.68114 4.69747,-10.47946 1.47752,-7.43339 3.07892,-8.86744 9.01334,-8.07147 5.48798,0.73609 10.62334,4.28011 13.02585,8.98942 1.92495,3.77321 1.96385,4.27279 0.52273,6.71242 -1.04115,1.76252 -1.70052,6.09372 -1.99018,13.07262 -0.23825,5.74024 -1.12892,12.6868 -1.97931,15.4368 -0.85037,2.75 -2.30434,8.15 -3.23103,12 -0.9267,3.85 -2.5192,8.8 -3.5389,11 -1.01969,2.2 -2.5294,7.15 -3.35491,11 -1.96417,9.1605 -2.96275,12.42443 -5.01583,16.39465 -0.93226,1.80279 -2.30611,6.0515 -3.053,9.44158 -2.21043,10.03296 -5.33548,19.8214 -6.88009,21.55012 -0.79298,0.88751 -1.43719,3.24665 -1.43159,5.24254 0.006,1.99589 -0.56319,4.69589 -1.264,6 -0.7008,1.30411 -1.39201,3.72111 -1.53602,5.37111 -1.05344,12.07048 -1.77473,17.15759 -2.57636,18.1705 -0.84844,1.07205 -2.21777,13.67254 -2.07823,19.12364 0.10023,3.91511 2.35217,8.07124 4.61263,8.51295 1.1837,0.2313 -0.84319,0.48183 -4.5042,0.55673 -6.10166,0.12483 -6.61458,-0.0237 -6.15482,-1.7818 0.3753,-1.43515 -0.0888,-2.00155 -1.84362,-2.25 -1.71615,-0.24296 -2.351,-0.98216 -2.36687,-2.75592 -0.0279,-3.11289 -1.5877,-3.58801 -5.36567,-1.63435 -2.21233,1.14404 -3.20387,2.52762 -3.69764,5.15966 -0.46428,2.47482 -0.93308,3.17835 -1.50321,2.25587 -0.65983,-1.06764 -1.08129,-1.08778 -2.07015,-0.0989 -0.92209,0.92208 -7.62401,1.24162 -26.04164,1.24162 -24.8,0 -24.8,0 -24.8,-4.87756 z m 86.00001,2.85281 c 0,-1.22614 0.96208,-2.39053 2.4392,-2.95213 2.87453,-1.0929 3.72344,-2.52234 6.58866,-11.09436 1.18185,-3.53582 3.65824,-10.25376 5.50307,-14.92876 4.39717,-11.1429 13.46907,-38.06865 13.46907,-39.97674 0,-0.82201 1.07641,-3.75101 2.39202,-6.50891 1.31561,-2.75789 3.15182,-7.93935 4.08046,-11.51435 3.42087,-13.16927 7.83028,-26.50271 9.09014,-27.48727 0.71274,-0.557 1.44023,-2.09509 1.61664,-3.41797 0.22348,-1.67595 1.07228,-2.51846 2.79935,-2.77862 1.36324,-0.20535 2.91574,-0.81049 3.45,-1.34475 2.78007,-2.78007 7.04709,0.48529 10.49143,8.02861 1.13011,2.475 2.46457,5.175 2.96548,6 3.24596,5.34609 4.6098,10.90153 4.53383,18.46792 -0.0768,7.64474 -2.29283,20.56102 -4.63796,27.03208 -9.22834,25.46437 -9.95035,28.3582 -9.97357,39.97444 -0.0154,7.67827 0.40891,12.01392 1.33484,13.64073 0.74653,1.31166 1.35734,4.29649 1.35734,6.63296 0,4.24813 0,4.24813 -28.75,4.25 -28.2011,0.002 -28.75,-0.0368 -28.75,-2.02288 z"
         id="path3842"
         inkscape:connector-curvature="0" />
    </g>
  </g>
</svg>
