<?xml version="1.0" encoding="UTF-8" standalone="no"?>
<!-- Created with Inkscape (http://www.inkscape.org/) -->

<svg
   xmlns:dc="http://purl.org/dc/elements/1.1/"
   xmlns:cc="http://creativecommons.org/ns#"
   xmlns:rdf="http://www.w3.org/1999/02/22-rdf-syntax-ns#"
   xmlns:svg="http://www.w3.org/2000/svg"
   xmlns="http://www.w3.org/2000/svg"
   xmlns:sodipodi="http://sodipodi.sourceforge.net/DTD/sodipodi-0.dtd"
   xmlns:inkscape="http://www.inkscape.org/namespaces/inkscape"
   width="297mm"
   height="210mm"
   id="svg4258"
   version="1.1"
   inkscape:version="0.48.5 r10040"
   sodipodi:docname="logo_landscape.svg">
  <defs
     id="defs4260" />
  <sodipodi:namedview
     inkscape:document-units="mm"
     pagecolor="#ffffff"
     bordercolor="#666666"
     borderopacity="1.0"
     inkscape:pageopacity="0.0"
     inkscape:pageshadow="2"
     inkscape:zoom="1.7366334"
     inkscape:cx="574.52554"
     inkscape:cy="414.70433"
     inkscape:current-layer="layer1"
     id="namedview4262"
     showgrid="false"
     inkscape:window-width="3440"
     inkscape:window-height="1387"
     inkscape:window-x="1432"
     inkscape:window-y="-8"
     inkscape:window-maximized="1" />
  <metadata
     id="metadata4264">
    <rdf:RDF>
      <cc:Work
         rdf:about="">
        <dc:format>image/svg+xml</dc:format>
        <dc:type
           rdf:resource="http://purl.org/dc/dcmitype/StillImage" />
        <dc:title></dc:title>
      </cc:Work>
    </rdf:RDF>
  </metadata>
  <g
     inkscape:label="Layer 1"
     inkscape:groupmode="layer"
     id="layer1">
    <g
       id="g3891-5-8"
       transform="matrix(0.49147272,0,0,0.49147272,129.38931,133.01901)">
      <path
         style="fill:none"
         inkscape:connector-curvature="0"
         id="path3025-4-0"
         data-part-id="logo__item--logo_0__0"
         d="m 108.95961,196.81387 c -2.13531,0.19412 -3.97061,0.82501 -5.64267,1.64119 -2.72648,1.31471 -4.892667,3.21619 -6.233849,5.36914 -2.638245,4.30148 -6.970615,19.95889 -8.91621,46.30605 -0.167648,-0.0662 -0.388237,-0.17206 -0.547061,-0.23823 0.185295,0.17206 0.339707,0.34412 0.529414,0.51176 -1.217652,16.60595 -1.508829,37.4075 0.189706,62.36053 1.614712,23.76627 5.197079,45.15017 9.061799,62.40906 24.353031,-40.90162 69.917911,-97.66801 151.522631,-145.33731 4.18678,-2.43972 8.47945,-4.84414 12.86034,-7.23973 -13.76475,-4.95444 -31.4207,-10.23975 -53.52814,-14.978 C 157.65244,196.7477 120.8273,195.7374 108.95961,196.81387 z" />
      <path
         style="fill:none"
         inkscape:connector-curvature="0"
         id="path3027-31-6"
         data-part-id="logo__item--logo_0__1"
         d="m 102.60664,395.7058 c 1.80001,-1.94118 3.71031,-3.94413 5.69561,-5.97355 -1.90148,1.875 -3.94854,3.70148 -5.80149,5.58972 -0.65736,-2.31618 -1.34118,-4.9059 -2.02501,-7.52649 0.68383,2.62942 1.36765,5.21913 2.02501,7.53973 0.0397,0.12353 0.075,0.25588 0.10588,0.37059 z" />
      <path
         style="fill:none"
         inkscape:connector-curvature="0"
         id="path3029-23-8"
         data-part-id="logo__item--logo_0__2"
         d="m 291.72647,356.23801 h 0.009 c -0.12353,-3.87796 -0.29118,-7.6765 -0.48089,-11.40887 -36.34425,5.25002 -70.43409,13.72946 -101.57685,24.8648 28.30599,-8.25444 62.19288,-13.68535 102.04891,-13.36329 v -0.0926 z" />
      <path
         style="fill:none"
         inkscape:connector-curvature="0"
         id="path3031-3-1"
         data-part-id="logo__item--logo_0__3"
         d="m 113.40668,421.22795 c 1.11177,1.09413 2.26766,2.05148 3.53384,2.71325 1.34559,1.23971 6.56473,2.6603 7.83091,2.0956 8.14856,0.88235 21.27802,0.93088 38.9825,0.1147 7.29709,-0.3397 15.278,-0.80735 24.1545,-1.4603 0.37942,1.49119 23.59421,-1.875 35.19278,-2.9956 47.45313,-4.54854 86.02974,-17.35153 90.07533,-19.71184 0.11471,-0.075 0.21618,-0.15441 0.32206,-0.22058 h -0.009 c -0.62647,-0.0706 -1.26176,-0.18089 -1.88382,-0.25589 -7.17355,-0.84265 -14.28535,-1.52647 -21.33537,-2.06912 -0.0177,0.0265 -0.0265,0.0573 -0.0397,0.0882 -66.33113,-5.17061 -127.35489,3.01325 -176.85949,21.60008 -0.6353,-0.63529 -1.27942,-1.25294 -1.88383,-2.02059 -0.0794,-0.0618 -0.14118,-0.12353 -0.21618,-0.1853 0.0838,0.0926 0.17206,0.20295 0.24706,0.27353 0.60441,0.78089 1.24853,1.39413 1.88824,2.03383 z" />
      <path
         style="fill:none"
         inkscape:connector-curvature="0"
         id="path3033-41-9"
         data-part-id="logo__item--logo_0__4"
         d="m 189.60256,369.72482 c -22.14273,6.48091 -40.78692,14.67358 -56.30757,23.1442 15.51183,-8.46179 34.14719,-16.65006 56.27227,-23.13097 0.009,0 0.0265,-0.004 0.0353,-0.0132 z" />
      <path
         style="fill:none"
         inkscape:connector-curvature="0"
         id="path3035-1-8"
         data-part-id="logo__item--logo_0__5"
         d="m 110.42432,417.75588 c 0.009,-0.009 0.0177,-0.009 0.0177,-0.0176 -0.25589,-0.41912 -0.58677,-1.06766 -0.96618,-1.90148 -0.009,0.0132 -0.0177,0.0265 -0.0265,0.0353 0.009,0 0.0397,0.0574 0.0485,0.0485 0.36618,0.80295 0.67942,1.41618 0.92648,1.8353 z" />
      <path
         style="fill:none"
         inkscape:connector-curvature="0"
         id="path3037-3-9"
         data-part-id="logo__item--logo_0__6"
         d="m 102.60664,395.7058 c 1.4603,5.05149 2.83678,9.41474 4.0456,12.8824 -1.20882,-3.47648 -2.5853,-7.83532 -4.0456,-12.8824 z" />
      <path
         style="fill:none"
         inkscape:connector-curvature="0"
         id="path3039-8-7"
         data-part-id="logo__item--logo_0__7"
         d="m 118.5067,379.9028 c 1.13824,-1.05001 2.25001,-2.09119 3.43678,-3.15443 -1.15589,1.0456 -2.28972,2.10001 -3.43678,3.15443 z" />
      <path
         style="fill:none"
         inkscape:connector-curvature="0"
         id="path3041-7-2"
         data-part-id="logo__item--logo_0__8"
         d="m 128.18615,371.366 c 33.48542,-28.24422 84.47238,-58.70757 158.84178,-74.87234 -0.98824,-7.79561 -2.00736,-14.72211 -2.97354,-20.62066 -60.95759,25.93245 -113.62543,58.70316 -155.86824,95.493 z" />
      <path
         style="fill:#516695;fill-opacity:1"
         inkscape:connector-curvature="0"
         id="path3043-4-2"
         data-part-id="logo__item--logo_0__9"
         d="m 121.94348,376.74837 c -1.18677,1.06324 -2.29854,2.10442 -3.43678,3.15443 -3.51619,3.23825 -6.85591,6.53385 -10.20445,9.83386 -1.9853,2.02942 -3.8956,4.02796 -5.69561,5.97355 1.4603,5.05149 2.83678,9.40592 4.0456,12.8824 -0.0309,0.0927 0.0485,0.44118 0.17206,0.87354 7.48239,-5.40002 16.30154,-11.04269 26.47069,-16.59271 15.52065,-8.47062 34.16484,-16.6633 56.30757,-23.14421 0.004,0 0.0176,0 0.0221,-0.009 0.0176,-0.0132 0.0353,-0.0132 0.0529,-0.0221 31.14718,-11.13092 65.23701,-19.61037 101.57685,-24.8648 l 0,0 c 0.67942,-0.10147 1.37648,-0.16765 2.06031,-0.2647 5.44413,-0.75442 10.94563,-1.43383 16.47359,-2.06031 32.45746,-3.63089 66.47229,-4.80884 101.62096,-3.00442 135.58286,6.9265 182.52863,-114.19014 186.10658,-124.03282 -2.65148,6.52943 -29.6207,56.94286 -236.13618,70.71644 -20.06479,1.33236 -38.80162,3.69708 -56.39579,6.81179 -6.11914,1.08089 -12.1324,2.22795 -17.95154,3.49413 -74.3694,16.16477 -125.36077,46.62371 -158.84178,74.87234 -2.07354,1.80001 -4.2309,3.56031 -6.24708,5.38237 z" />
      <path
         style="fill:#fdd404;fill-opacity:1"
         inkscape:connector-curvature="0"
         id="path3045-2-8"
         data-part-id="logo__item--logo_0__10"
         d="m 291.7353,356.23801 h -0.009 v 0.0926 c -39.85603,-0.31764 -73.74733,5.10885 -102.04891,13.36329 -0.0177,0.009 -0.0309,0.009 -0.0529,0.0221 -0.004,0.009 -0.0177,0.009 -0.0221,0.009 -0.009,0.009 -0.0265,0.0132 -0.0353,0.0132 -22.12508,6.48091 -40.76044,14.66918 -56.27227,23.13097 -10.16915,5.55003 -18.9883,11.19269 -26.47069,16.59271 0.54707,1.91913 2.29854,6.30444 2.62943,6.41032 0.009,-0.009 0.0176,-0.0221 0.0265,-0.0353 0.37941,0.82941 0.71029,1.48236 0.96618,1.90148 0,0.009 -0.009,0.009 -0.0177,0.0176 0.0177,0.0177 0.0309,0.0618 0.0441,0.0794 -0.0529,0.075 0.40147,0.67059 0.79853,1.09412 0.075,0.0618 0.13677,0.12353 0.21618,0.18529 0.60441,0.76765 1.24853,1.3853 1.88383,2.0206 49.50901,-18.59125 110.52836,-26.77069 176.85949,-21.60008 0.0132,-0.0309 0.0221,-0.0618 0.0397,-0.0882 7.05002,0.54265 14.16182,1.22206 21.33537,2.06913 0.62647,0.075 1.26176,0.18529 1.88382,0.25588 h 0.009 l 0,0 c 1.21765,0.14559 2.46178,0.37941 3.68825,0.54706 7.14268,0.91765 14.31182,1.92354 21.52508,3.1456 13.01476,2.20148 26.14863,4.82649 39.40162,8.07797 114.90485,28.20452 174.94037,-67.83113 179.56392,-75.56057 -3.27796,5.08678 -34.47807,43.87516 -213.5964,21.7589 -11.57651,-1.43824 -22.68538,-2.35589 -33.45011,-2.90736 -3.21178,-0.16765 -6.30003,-0.19853 -9.45445,-0.28677 -3.15001,-0.1147 -6.37061,-0.29118 -9.44121,-0.30882 l 0,0 z" />
      <path
         style="fill:#fdd404;fill-opacity:1"
         inkscape:connector-curvature="0"
         id="path3047-7-2"
         data-part-id="logo__item--logo_0__11"
         d="m 669.23377,21.017621 c -1.60589,8.836799 -22.25302,78.688533 -276.37604,149.215269 -39.1678,10.87063 -73.60175,24.03539 -104.01656,38.56779 0.004,0 0.004,0 0.004,0 -5.17061,2.46619 -10.25739,4.95885 -15.18976,7.50886 -4.03678,2.06471 -7.98533,4.16913 -11.88093,6.28679 -4.3809,2.39559 -8.67356,4.80001 -12.86034,7.23973 -81.60472,47.67371 -127.1696,104.4401 -151.522634,145.33731 1.023533,4.54855 2.051478,8.69562 3.075014,12.62211 0.68382,2.62059 1.36765,5.21031 2.02501,7.52649 1.85294,-1.88824 3.90001,-3.71472 5.80149,-5.58972 3.35295,-3.2956 6.69267,-6.5912 10.20445,-9.83386 1.14706,-1.05001 2.28089,-2.10883 3.43678,-3.15443 2.02059,-1.82206 4.17354,-3.58236 6.24708,-5.38237 42.24281,-36.78984 94.91065,-69.56055 155.86824,-95.493 l 0,0 c 5.74413,-2.44854 11.55004,-4.8309 17.43094,-7.16033 0,0 0,0 0,0.009 C 352.53805,248.5863 408.8412,233.11859 469.04878,223.84062 640.03219,197.48447 667.297,34.21326 669.23377,21.017621" />
      <path
         style="fill:#2d2c2a"
         inkscape:connector-curvature="0"
         id="path3049-79-8"
         data-part-id="logo__item--logo_0__12"
         d="m 291.25441,344.82914 c 0.18971,3.73237 0.35736,7.53091 0.48089,11.40887 v 0.004 c 3.0706,0.0132 6.2912,0.18971 9.45003,0.29118 3.15443,0.0926 6.22944,0.11911 9.45004,0.28235 -0.22941,-4.86178 -0.52059,-9.63974 -0.83824,-14.30299 -5.53678,0.61764 -11.02945,1.30147 -16.47359,2.05147 -0.68824,0.0971 -1.38971,0.16324 -2.06913,0.26471 l 0,0 z" />
      <path
         sodipodi:nodetypes="cccccccccccccccccccccccccccccccccccccccccccsccccccccccccccccccccccc"
         style="fill:#2d2c2a"
         inkscape:connector-curvature="0"
         id="path3051-3-9"
         data-part-id="logo__item--logo_0__13"
         d="m 291.20279,397.30843 c -0.10588,0.0662 -1.52675,10.38773 -5.12959,12.79682 -2.89597,3.50993 -15.51886,7.04622 -62.97199,11.59477 -11.59857,1.12059 -34.81336,4.48678 -35.19278,2.9956 -8.87209,0.65294 -16.853,1.12059 -24.1545,1.46029 -17.70448,0.81618 -30.83394,0.76765 -38.9825,-0.1147 -1.27059,0.56471 -6.48973,-0.85148 -7.83091,-2.0956 -1.27059,-0.66176 -2.42207,-1.61912 -3.53384,-2.71324 -0.64412,-0.63971 -1.28824,-1.25295 -1.89265,-2.02942 -0.075,-0.0706 -0.16765,-0.18089 -0.24706,-0.27353 -0.39706,-0.42353 -0.84706,-1.01912 -0.79853,-1.09412 -0.009,-0.0177 -0.0265,-0.0618 -0.0441,-0.0794 -0.25147,-0.41912 -0.5603,-1.02794 -0.92206,-1.8353 -0.009,0.009 -0.0397,-0.0485 -0.0485,-0.0485 -0.33089,-0.10588 -2.08236,-4.4956 -2.62943,-6.41032 -0.12353,-0.43676 -0.20294,-0.78529 -0.17206,-0.87353 -1.20882,-3.46766 -2.5853,-7.83091 -4.0456,-12.8824 -0.0309,-0.1103 -0.0662,-0.24706 -0.10588,-0.37059 -0.65736,-2.3206 -1.34118,-4.91031 -2.02501,-7.53973 -1.019121,-3.9309 -2.051477,-8.07356 -3.075011,-12.62211 -3.860308,-17.25447 -7.447087,-38.64279 -9.061799,-62.40906 -1.698535,-24.95303 -1.407358,-45.75458 -0.189706,-62.36053 -0.189707,-0.16764 -0.344119,-0.3397 -0.529414,-0.51176 0.158824,0.0662 0.379413,0.17206 0.547061,0.23823 1.941184,-26.34274 6.277965,-42.00457 8.91621,-46.30605 1.341182,-2.15737 3.507369,-4.05443 6.233849,-5.36914 1.67206,-0.81618 3.50736,-1.44265 5.64267,-1.64119 11.86769,-1.08088 48.69724,-0.0662 99.29155,10.80005 22.10744,4.73825 39.76338,10.02356 53.52814,14.97799 3.89561,-2.11765 7.84415,-4.22207 11.88093,-6.28678 4.93237,-2.55001 10.01916,-5.04267 15.18976,-7.50886 0,0 0,0 -0.004,0 -15.0177,-6.77649 -37.12514,-15.07505 -67.17819,-22.89714 l 2.30736,0 c -0.28677,-8.08239 -2.91178,-15.55153 -7.18679,-21.81626 0.27353,-0.16324 0.6,-0.31324 0.83823,-0.55147 l 47.41783,-47.40901 c 2.40442,0.38824 4.9412,-0.19853 6.78973,-2.06471 3.08384,-3.05737 3.08384,-8.02503 0,-11.07357 -3.0353,-3.070602 -8.01179,-3.070602 -11.06475,0 -1.87059,1.84412 -2.45295,4.39413 -2.05147,6.79855 l -47.42665,47.42665 c -0.0485,0.075 -0.0838,0.15 -0.12795,0.225 -7.43385,-7.09414 -17.47947,-11.45298 -28.55304,-11.45298 -11.0824,0 -21.13244,4.35884 -28.56188,11.44416 -0.0574,-0.0662 -0.075,-0.14118 -0.13235,-0.21618 l -47.41783,-47.42665 c 0.40147,-2.40442 -0.1897,-4.95443 -2.04706,-6.79855 -3.07943,-3.057366 -8.029446,-3.057366 -11.095634,0 -3.048541,3.04854 -3.048541,8.0162 0,11.07357 1.870595,1.86618 4.398546,2.45295 6.811794,2.06471 l 47.41782,47.40901 c 0.22942,0.23823 0.54265,0.37059 0.82501,0.55147 -1.39413,2.03383 -2.52795,4.24413 -3.54266,6.50738 -39.52957,-5.63385 -67.676731,-6.0662 -78.812068,-5.05591 -7.275027,0.66618 -12.613283,4.5662 -15.414764,9.10151 -5.589727,9.10592 -17.025064,57.23845 -11.325043,141.32259 5.033843,74.30763 24.970683,131.16226 28.980992,136.77405 4.5309,6.33531 9.052976,9.03532 16.305944,9.97503 19.253019,2.48384 63.410539,0.90001 129.525489,-5.43972 61.54435,-5.90738 75.25808,-12.16694 83.6612,-16.78321 7.42944,-4.31031 9.81068,-10.85446 9.81068,-10.85446 5.50174,-8.97522 3.99346,-23.01609 4.07288,-27.95729 -7.23091,-1.22206 -7.79232,-1.01849 -15.59691,-1.72712 -1.22647,-0.16765 -4.06869,-0.33179 -5.29076,-0.47738 l 0,0 z" />
      <path
         style="fill:#2d2c2a"
         inkscape:connector-curvature="0"
         id="path3053-19-0"
         data-part-id="logo__item--logo_0__14"
         d="m 284.05439,275.87741 0,0 c 0.96618,5.89855 1.98971,12.82505 2.97354,20.62067 5.81914,-1.26619 11.8324,-2.40443 17.95154,-3.50296 -1.15148,-9.0618 -2.36472,-17.22801 -3.49413,-24.26921 0,-0.009 0,-0.009 0,-0.009 -5.88091,2.32942 -11.6824,4.71178 -17.43095,7.16032 z" />
    </g>
    <text
       xml:space="preserve"
       style="font-size:85.93972778px;font-style:normal;font-variant:normal;font-weight:300;font-stretch:normal;text-align:center;line-height:125%;letter-spacing:0px;word-spacing:0px;writing-mode:lr-tb;text-anchor:middle;fill:#000000;fill-opacity:1;stroke:none;font-family:Segoe WP SemiLight;-inkscape-font-specification:Segoe WP SemiLight Light"
       x="516.7627"
       y="445.14291"
       id="text3908-8-7"
       sodipodi:linespacing="125%"><tspan
         sodipodi:role="line"
         id="tspan3910-6-8"
         x="516.7627"
         y="445.14291">VIRTUAL SALES LAB</tspan></text>
    <g
       id="g4601">
      <flowRoot
         style="fill:black;stroke:none;stroke-opacity:1;stroke-width:1px;stroke-linejoin:miter;stroke-linecap:butt;fill-opacity:1;font-family:Segoe WP SemiLight;font-style:normal;font-weight:300;font-size:40px;line-height:125%;letter-spacing:0px;word-spacing:0px;text-anchor:middle;text-align:center;-inkscape-font-specification:Segoe WP SemiLight Light;font-stretch:normal;font-variant:normal;writing-mode:lr"
         id="flowRoot4593"
         xml:space="preserve"><flowRegion
           id="flowRegion4595"><rect
             y="17.401115"
             x="0"
             height="658.74579"
             width="1308.2784"
             id="rect4597" /></flowRegion><flowPara
           id="flowPara4599"></flowPara></flowRoot>    </g>
  </g>
</svg>
